<svg width="423" height="239" viewBox="0 0 423 239" fill="none" xmlns="http://www.w3.org/2000/svg">
<path d="M16.2511 237.689C16.3504 235.952 -24.5709 183.796 23.0842 135.642C44.5971 113.904 80.985 125.682 75.2297 62.1796C70.2592 7.35162 156.1 -24.8652 209.448 24.0862C243.915 55.7141 278.808 13.521 333.49 37.4607C388.17 61.4004 352.163 126.468 374.602 132.599C418.801 144.676 440.753 197.824 405.514 237.098L16.2511 237.689Z" fill="#EBF3FA"/>
<path d="M200.492 110.924C200.26 110.446 200.005 109.961 199.732 109.483L200.502 109.046C200.783 109.541 201.048 110.044 201.288 110.539L200.492 110.924ZM198.883 108.09C198.59 107.64 198.277 107.188 197.952 106.747L198.666 106.222C199 106.677 199.323 107.142 199.624 107.605L198.883 108.09ZM110.935 117.845C110.376 117.904 109.813 117.952 109.261 117.984L109.21 117.1C109.747 117.069 110.296 117.022 110.841 116.964L110.935 117.845ZM112.599 117.625L112.464 116.751C112.997 116.668 113.54 116.572 114.078 116.465L114.252 117.332C113.7 117.441 113.144 117.54 112.599 117.625ZM107.581 118.04C107.018 118.045 106.452 118.033 105.899 118.008L105.94 117.125C106.477 117.15 107.026 117.16 107.574 117.156L107.581 118.04ZM115.889 116.968L115.679 116.109C116.204 115.982 116.737 115.839 117.265 115.687L117.51 116.538C116.971 116.692 116.426 116.837 115.889 116.968ZM104.22 117.883C103.66 117.825 103.099 117.752 102.551 117.663L102.693 116.789C103.223 116.875 103.768 116.948 104.311 117.003L104.22 117.883ZM119.111 116.045L118.835 115.204C119.348 115.035 119.87 114.853 120.386 114.663L120.693 115.494C120.168 115.687 119.635 115.873 119.111 116.045ZM122.252 114.888L121.918 114.069C122.42 113.864 122.928 113.647 123.43 113.422L123.79 114.23C123.28 114.458 122.764 114.68 122.252 114.888ZM100.897 117.342C100.345 117.218 99.7973 117.074 99.2642 116.917L99.5158 116.068C100.029 116.22 100.561 116.357 101.092 116.478L100.897 117.342ZM196.949 105.458C196.606 105.041 196.245 104.624 195.879 104.22L196.535 103.625C196.912 104.04 197.282 104.467 197.634 104.897L196.949 105.458ZM125.307 113.523L124.921 112.727C125.408 112.491 125.903 112.243 126.392 111.988L126.802 112.772C126.304 113.03 125.802 113.283 125.307 113.523ZM97.6631 116.385C97.1349 116.19 96.6084 115.975 96.1001 115.745L96.4643 114.939C96.9544 115.159 97.4611 115.368 97.9694 115.555L97.6631 116.385ZM128.271 111.976L127.839 111.204C128.312 110.939 128.792 110.663 129.264 110.381L129.718 111.141C129.238 111.427 128.751 111.708 128.271 111.976ZM194.747 103.037C194.363 102.655 193.962 102.276 193.558 101.912L194.151 101.256C194.565 101.63 194.975 102.018 195.371 102.41L194.747 103.037ZM94.5851 114.997C94.09 114.729 93.5999 114.441 93.1281 114.14L93.6049 113.396C94.0569 113.685 94.5288 113.963 95.0056 114.22L94.5851 114.997ZM131.142 110.269L130.668 109.521C131.127 109.232 131.591 108.931 132.051 108.624L132.543 109.361C132.077 109.67 131.605 109.976 131.142 110.269ZM133.92 108.418L133.412 107.693C133.856 107.382 134.306 107.058 134.751 106.732L135.276 107.445C134.826 107.776 134.369 108.103 133.92 108.418ZM91.7389 113.176C91.2885 112.837 90.8481 112.478 90.4276 112.107L91.0137 111.444C91.416 111.799 91.8399 112.143 92.272 112.469L91.7389 113.176ZM192.316 100.844C191.895 100.5 191.462 100.162 191.025 99.8361L191.553 99.1263C192.001 99.4589 192.447 99.8063 192.877 100.159L192.316 100.844ZM136.607 106.442L136.068 105.741L136.198 105.64C136.598 105.332 136.995 105.029 137.392 104.733L137.922 105.441C137.53 105.736 137.136 106.035 136.74 106.341L136.607 106.442ZM189.687 98.8931C189.236 98.5903 188.771 98.2942 188.306 98.0129L188.764 97.2552C189.243 97.5431 189.718 97.8475 190.182 98.1569L189.687 98.8931ZM89.2056 110.941C88.8149 110.537 88.4357 110.112 88.0781 109.68L88.7619 109.117C89.1046 109.533 89.4672 109.938 89.8431 110.325L89.2056 110.941ZM139.253 104.465L138.737 103.747C139.189 103.423 139.647 103.099 140.099 102.788L140.603 103.516C140.154 103.823 139.7 104.144 139.253 104.465ZM186.885 97.1989C186.408 96.9408 185.917 96.6894 185.427 96.4544L185.811 95.657C186.314 95.8985 186.817 96.1566 187.306 96.4213L186.885 97.1989ZM141.969 102.592L141.48 101.855C141.947 101.547 142.419 101.242 142.883 100.951L143.355 101.701C142.898 101.989 142.431 102.288 141.969 102.592ZM87.0549 108.332C86.7336 107.872 86.4257 107.392 86.1425 106.906L86.9075 106.459C87.1807 106.924 87.4737 107.384 87.7817 107.825L87.0549 108.332ZM144.76 100.837L144.305 100.078C144.782 99.7914 145.267 99.5102 145.747 99.2372L146.184 100.007C145.711 100.276 145.232 100.556 144.76 100.837ZM183.935 95.7794C183.433 95.5677 182.921 95.3642 182.413 95.1772L182.719 94.3467C183.241 94.5386 183.768 94.7471 184.281 94.9654L183.935 95.7794ZM147.626 99.2124L147.207 98.4331C147.698 98.1701 148.196 97.912 148.689 97.6638L149.087 98.4546C148.602 98.6978 148.11 98.9526 147.626 99.2124ZM180.863 94.6478C180.345 94.484 179.817 94.3318 179.29 94.1928L179.517 93.3375C180.057 93.4798 180.6 93.6369 181.13 93.8057L180.863 94.6478ZM150.57 97.7333L150.193 96.9326C150.698 96.696 151.209 96.4644 151.714 96.2427L152.069 97.0533C151.574 97.2717 151.069 97.5 150.57 97.7333ZM85.3445 105.412C85.1011 104.907 84.8726 104.386 84.6689 103.861L85.4935 103.54C85.6889 104.043 85.9074 104.543 86.1409 105.028L85.3445 105.412ZM177.698 93.8107C177.168 93.6965 176.626 93.5939 176.088 93.5046L176.234 92.6327C176.785 92.7237 177.34 92.8296 177.883 92.947L177.698 93.8107ZM153.587 96.4197L153.257 95.5991C153.776 95.3906 154.301 95.1888 154.819 95.0002L155.123 95.8307C154.615 96.016 154.099 96.2145 153.587 96.4197ZM174.467 93.273C173.928 93.2084 173.379 93.1555 172.836 93.1158L172.901 92.234C173.457 92.2753 174.019 92.3283 174.572 92.3944L174.467 93.273ZM156.677 95.2881L156.398 94.4476C156.93 94.2722 157.468 94.1035 157.996 93.9496L158.246 94.7983C157.726 94.9506 157.198 95.116 156.677 95.2881ZM171.201 93.0331C170.661 93.0182 170.109 93.0132 169.561 93.0215L169.548 92.1364C170.108 92.1281 170.672 92.1314 171.225 92.1479L171.201 93.0331ZM159.831 94.3616L159.61 93.5046C160.15 93.3656 160.698 93.2349 161.24 93.1174L161.428 93.9811C160.897 94.0985 160.361 94.2259 159.831 94.3616ZM167.924 93.081C167.382 93.1125 166.833 93.1555 166.29 93.2084L166.202 92.3283C166.757 92.2737 167.32 92.229 167.873 92.1976L167.924 93.081ZM163.039 93.6618L162.882 92.7915C163.434 92.6922 163.99 92.6029 164.538 92.5268L164.66 93.4037C164.124 93.4781 163.579 93.5658 163.039 93.6618ZM84.1176 102.263C83.9553 101.73 83.8113 101.18 83.6888 100.629L84.553 100.437C84.6706 100.966 84.8097 101.494 84.9653 102.007L84.1176 102.263ZM83.3808 98.9692C83.351 98.7657 83.3228 98.5622 83.2997 98.3587C83.2566 98.0047 83.2218 97.6456 83.1953 97.2916L84.0778 97.2254C84.1043 97.5662 84.1375 97.9137 84.1788 98.2528C84.202 98.4497 84.2285 98.6449 84.2583 98.8401L83.3808 98.9692ZM84.01 95.5974L83.1242 95.6041C83.1208 95.0482 83.1341 94.4807 83.1672 93.9182L84.0514 93.9695C84.0199 94.5138 84.005 95.0614 84.01 95.5974ZM84.1971 92.3448L83.3179 92.2389C83.3841 91.6963 83.4669 91.1437 83.5662 90.5977L84.4421 90.7301L84.4355 90.7648C84.3428 91.2843 84.2616 91.8187 84.1971 92.3448ZM84.7699 89.1269L83.9057 88.9317C84.0282 88.3874 84.1656 87.8398 84.3097 87.3054L85.164 87.537C85.0233 88.0598 84.8908 88.5942 84.7699 89.1269ZM115.058 84.65C114.474 84.7046 113.896 84.7195 113.338 84.6947L113.379 83.8112C113.894 83.8361 114.431 83.8212 114.974 83.7699L115.058 84.65ZM116.749 84.382L116.558 83.5184C117.072 83.4059 117.595 83.2603 118.11 83.0866L118.393 83.9254C117.846 84.109 117.293 84.2629 116.749 84.382ZM111.621 84.473C111.04 84.3456 110.48 84.1669 109.962 83.9386L110.318 83.128C110.783 83.3315 111.285 83.4936 111.81 83.6077L111.621 84.473ZM119.977 83.3L119.613 82.4943C120.1 82.2743 120.583 82.0261 121.052 81.7581L121.492 82.5257C120.999 82.8087 120.489 83.0684 119.977 83.3ZM122.926 81.6158L122.416 80.8912C122.857 80.5818 123.287 80.2476 123.694 79.9018L124.269 80.5752C123.842 80.9408 123.39 81.2899 122.926 81.6158ZM85.6293 85.967L84.7865 85.6973C84.957 85.1662 85.1408 84.6318 85.3329 84.1123L86.1624 84.4184C85.9753 84.9263 85.7965 85.4475 85.6293 85.967ZM108.444 83.0601C107.973 82.711 107.543 82.3074 107.165 81.8573L107.843 81.2882C108.177 81.6853 108.558 82.0426 108.972 82.3504L108.444 83.0601ZM125.509 79.4121L124.873 78.7966C125.249 78.4079 125.607 77.9992 125.936 77.5823L126.632 78.1299C126.282 78.5716 125.905 79.0018 125.509 79.4121ZM86.7651 82.8963L85.9488 82.5522C86.1657 82.0377 86.3975 81.5232 86.6359 81.0219L87.4357 81.4024C87.2039 81.8937 86.977 82.395 86.7651 82.8963ZM106.193 80.4031C105.933 79.9084 105.712 79.3674 105.534 78.7983L106.38 78.5352C106.541 79.0531 106.743 79.5428 106.978 79.9911L106.193 80.4031ZM127.614 76.7402L126.863 76.2687C127.152 75.812 127.413 75.3405 127.643 74.8641L128.441 75.2495C128.196 75.7541 127.918 76.2554 127.614 76.7402ZM88.1758 79.9432L87.3959 79.5263C87.6592 79.0349 87.9374 78.5435 88.2221 78.0654L88.9821 78.5187C88.7039 78.9853 88.4324 79.465 88.1758 79.9432ZM105.149 77.1224C105.125 76.9685 105.102 76.8113 105.084 76.6525C105.036 76.2571 105.003 75.8435 104.988 75.4216L105.872 75.3869C105.887 75.7839 105.919 76.1744 105.963 76.545C105.981 76.6939 106.001 76.8394 106.025 76.985L105.149 77.1224ZM129.094 73.6695L128.258 73.3817C128.431 72.8754 128.577 72.3559 128.686 71.8381L129.552 72.0217C129.433 72.5743 129.279 73.1285 129.094 73.6695ZM89.853 77.1323L89.1146 76.6442C89.4209 76.181 89.7421 75.7177 90.0716 75.2661L90.7869 75.7872C90.4656 76.229 90.1511 76.6806 89.853 77.1323ZM105.879 73.7655L104.995 73.7308C105.016 73.1649 105.058 72.5991 105.119 72.0499L106 72.1458C105.94 72.6752 105.899 73.2212 105.879 73.7655ZM129.804 70.3309L128.922 70.2548C128.966 69.727 128.981 69.1877 128.961 68.655L129.845 68.6235C129.867 69.191 129.852 69.7667 129.804 70.3309ZM91.7819 74.4885L91.0915 73.9359C91.4392 73.5024 91.8018 73.0706 92.171 72.6521L92.835 73.2361C92.4757 73.6431 92.1214 74.065 91.7819 74.4885ZM93.946 72.03L93.3085 71.4162C93.696 71.0142 94.0967 70.6171 94.5007 70.2349L95.11 70.8769C94.7159 71.2508 94.3235 71.6379 93.946 72.03ZM106.233 70.5427L105.362 70.3822C105.465 69.8279 105.589 69.2737 105.733 68.736L106.589 68.9643C106.45 69.4789 106.331 70.0099 106.233 70.5427ZM128.764 67.0981C128.645 66.5869 128.468 66.0955 128.241 65.6406L129.034 65.2468C129.292 65.7647 129.491 66.3189 129.627 66.8979L128.764 67.0981ZM96.3236 69.775L95.7424 69.1066C96.163 68.7426 96.5968 68.382 97.0339 68.0362L97.5836 68.7294C97.1581 69.0686 96.7326 69.421 96.3236 69.775ZM107.068 67.4174L106.233 67.1213C106.422 66.5919 106.634 66.0641 106.864 65.5529L107.672 65.9169C107.452 66.4049 107.248 66.9095 107.068 67.4174ZM127.392 64.3485C127.065 63.9613 126.685 63.6006 126.262 63.2747L126.802 62.5732C127.276 62.9372 127.703 63.3426 128.071 63.7777L127.392 64.3485ZM98.8916 67.7401L98.3717 67.0237C98.8238 66.6961 99.2874 66.3751 99.7526 66.0691L100.241 66.8069C99.7857 67.1064 99.3321 67.4207 98.8916 67.7401ZM101.627 65.9351L101.172 65.1757C101.65 64.8895 102.14 64.6099 102.63 64.3451L103.052 65.1227C102.574 65.3825 102.094 65.6555 101.627 65.9351ZM108.396 64.4692L107.621 64.0424C107.859 63.6089 108.119 63.1788 108.391 62.7585C108.099 62.8611 107.808 62.967 107.52 63.0762L107.205 62.249C107.728 62.0504 108.261 61.8618 108.79 61.6898L109.064 62.5302C108.917 62.5782 108.768 62.6278 108.621 62.6791L109.235 63.0861C108.937 63.5345 108.655 64.001 108.396 64.4692ZM124.928 62.4359C124.474 62.2027 123.981 61.9942 123.461 61.8155L123.747 60.9784C124.307 61.1703 124.84 61.3953 125.332 61.6484L124.928 62.4359ZM104.511 64.3749L104.124 63.5791C104.625 63.3359 105.139 63.0994 105.65 62.8793L106.001 63.6916C105.503 63.9067 105.001 64.1367 104.511 64.3749ZM121.913 61.3887C121.405 61.2795 120.868 61.1918 120.318 61.1273L120.419 60.2488C120.997 60.3149 121.562 60.4076 122.098 60.5234L121.913 61.3887ZM110.634 62.0571L110.459 61.4201C110.364 61.5359 110.273 61.6517 110.182 61.7675L109.483 61.2249C109.824 60.7865 110.189 60.3513 110.569 59.9311L111.227 60.5234C111.05 60.7203 110.874 60.9205 110.705 61.1223C111.149 61.0048 111.594 60.8973 112.033 60.7997L112.224 61.6633C111.697 61.7808 111.162 61.9131 110.634 62.0571ZM118.701 61.0098C118.173 60.9933 117.625 60.9949 117.073 61.0181L117.038 60.1346C117.611 60.1114 118.179 60.1081 118.729 60.1263L118.701 61.0098ZM113.83 61.3556L113.686 60.482C114.247 60.3894 114.808 60.3149 115.356 60.257L115.449 61.1372C114.917 61.1934 114.374 61.2662 113.83 61.3556ZM112.358 59.3554L111.742 58.7201C112.139 58.3362 112.558 57.9557 112.99 57.5901L113.563 58.2634C113.147 58.6158 112.742 58.9848 112.358 59.3554ZM114.836 57.2443L114.303 56.5379C114.742 56.207 115.202 55.8794 115.672 55.5634L116.167 56.298C115.711 56.604 115.263 56.9234 114.836 57.2443ZM117.545 55.4211L117.088 54.6634C117.558 54.3805 118.05 54.0992 118.547 53.8296L118.969 54.6071C118.484 54.8718 118.004 55.1448 117.545 55.4211ZM120.429 53.8577L120.042 53.0635C120.535 52.8237 121.047 52.5854 121.564 52.3588L121.921 53.1678C121.414 53.3911 120.913 53.6228 120.429 53.8577ZM123.438 52.5341L123.112 51.7119C123.622 51.5084 124.15 51.3098 124.68 51.1196L124.979 51.9518C124.458 52.1387 123.939 52.3339 123.438 52.5341ZM126.537 51.4224L126.266 50.5802C126.791 50.4115 127.33 50.246 127.867 50.0905L128.114 50.9393C127.585 51.0931 127.054 51.2553 126.537 51.4224ZM129.705 50.5041L129.483 49.6471C130.018 49.5082 130.566 49.3758 131.11 49.2517L131.307 50.1137C130.771 50.2361 130.231 50.3685 129.705 50.5041ZM132.922 49.7679L132.748 48.901C133.299 48.7901 133.854 48.6876 134.397 48.5966L134.546 49.4685C134.011 49.5595 133.465 49.6604 132.922 49.7679ZM137.805 49.0251C137.8 49.0251 137.197 49.0747 136.179 49.2153L136.058 48.3385C137.109 48.1929 137.717 48.1433 137.735 48.1416L137.805 49.0251Z" fill="#8C9DF4"/>
<path d="M142.109 146.458H106.889V236.832H142.109V146.458Z" fill="#BDD1F9"/>
<path d="M196.901 116.92H161.68V236.832H196.901V116.92Z" fill="#BDD1F9"/>
<path d="M250.064 85.0388H211.499V236.83H250.064V85.0388Z" fill="#BDD1F9"/>
<path d="M299.026 64.0256H263.805V236.831H299.026V64.0256Z" fill="#BDD1F9"/>
<path d="M250.064 135.625L324.089 99.8179L291.075 170.133L285.494 138.231L250.064 135.625Z" fill="#F77D48"/>
<path d="M233.035 111.654C231.224 104.217 235.791 96.7209 243.233 94.9109C250.676 93.101 258.178 97.6623 259.989 105.101C261.8 112.537 257.236 120.034 249.791 121.843C242.349 123.653 234.847 119.091 233.035 111.654Z" fill="#FFB93E"/>
<path d="M249.538 120.806C246.258 121.604 242.864 121.078 239.981 119.324C237.097 117.57 235.07 114.799 234.272 111.523C233.474 108.246 234.001 104.854 235.756 101.972C237.511 99.0903 240.283 97.0652 243.563 96.2678C246.843 95.4704 250.237 95.9965 253.121 97.7502C256.005 99.5039 258.032 102.273 258.83 105.551C259.628 108.828 259.102 112.22 257.346 115.102C255.591 117.982 252.818 120.009 249.538 120.806ZM243.741 96.9991C237.375 98.5476 233.454 104.982 235.004 111.345C236.554 117.706 242.993 121.622 249.361 120.075C255.727 118.527 259.648 112.092 258.098 105.73C256.548 99.3666 250.108 95.4505 243.741 96.9991Z" fill="#FFA412"/>
<path d="M249.107 111.687C249.074 111.414 249.006 111.179 248.905 110.982C248.803 110.784 248.655 110.612 248.46 110.464C248.265 110.317 248.021 110.19 247.728 110.079C247.435 109.97 247.081 109.87 246.667 109.783C245.953 109.626 245.301 109.45 244.712 109.255C244.12 109.06 243.605 108.815 243.167 108.52C242.726 108.224 242.369 107.86 242.094 107.427C241.817 106.993 241.642 106.459 241.564 105.824C241.498 105.273 241.534 104.758 241.675 104.282C241.816 103.805 242.047 103.375 242.369 102.995C242.692 102.614 243.092 102.287 243.572 102.015C244.053 101.744 244.604 101.54 245.226 101.406L244.975 99.3251L246.65 99.1216L246.907 101.231C247.516 101.236 248.081 101.329 248.599 101.509C249.117 101.689 249.571 101.951 249.959 102.291C250.348 102.632 250.666 103.053 250.914 103.552C251.162 104.052 251.326 104.626 251.404 105.273L248.377 105.64C248.283 104.862 248.04 104.302 247.647 103.957C247.255 103.613 246.768 103.478 246.188 103.547C245.874 103.585 245.609 103.661 245.392 103.777C245.175 103.891 245.003 104.035 244.875 104.204C244.748 104.374 244.66 104.566 244.615 104.783C244.571 105 244.562 105.226 244.592 105.466C244.622 105.706 244.683 105.92 244.776 106.105C244.869 106.292 245.011 106.456 245.203 106.601C245.394 106.745 245.64 106.874 245.94 106.985C246.241 107.096 246.609 107.205 247.048 107.309C247.756 107.48 248.404 107.665 248.992 107.864C249.579 108.062 250.093 108.31 250.533 108.61C250.973 108.909 251.331 109.275 251.608 109.708C251.884 110.142 252.06 110.673 252.136 111.302C252.205 111.872 252.167 112.397 252.023 112.873C251.879 113.351 251.646 113.778 251.323 114.152C251 114.526 250.594 114.845 250.104 115.108C249.616 115.371 249.059 115.57 248.439 115.704L248.674 117.64L247.008 117.842L246.775 115.916C246.188 115.927 245.612 115.869 245.048 115.74C244.483 115.611 243.968 115.39 243.504 115.074C243.041 114.758 242.65 114.337 242.331 113.81C242.011 113.284 241.806 112.63 241.711 111.852L244.738 111.487C244.794 111.947 244.905 112.324 245.071 112.615C245.236 112.908 245.44 113.133 245.678 113.292C245.917 113.451 246.178 113.55 246.463 113.591C246.748 113.633 247.033 113.636 247.319 113.601C247.647 113.562 247.93 113.484 248.169 113.37C248.405 113.255 248.599 113.113 248.75 112.944C248.899 112.776 249.003 112.584 249.063 112.369C249.122 112.154 249.137 111.927 249.107 111.687Z" fill="#FFA412"/>
<path d="M329.054 81.3849C334.33 76.1135 334.33 67.5667 329.054 62.2953C323.778 57.0238 315.225 57.0238 309.949 62.2953C304.674 67.5667 304.674 76.1134 309.949 81.3849C315.225 86.6564 323.778 86.6564 329.054 81.3849Z" fill="#FFB93E"/>
<path d="M319.994 84.286C316.709 84.4151 313.57 83.2586 311.156 81.0285C308.742 78.7983 307.341 75.7624 307.212 72.48C307.083 69.1976 308.24 66.0608 310.472 63.6486C312.704 61.2364 315.742 59.8368 319.027 59.7077C322.312 59.5787 325.45 60.7351 327.865 62.9653C330.279 65.1955 331.68 68.2314 331.809 71.5138C331.939 74.7962 330.781 77.933 328.549 80.3452C326.317 82.7573 323.279 84.157 319.994 84.286ZM319.057 60.4423C312.681 60.6921 307.697 66.0806 307.947 72.4519C308.197 78.8231 313.59 83.8029 319.966 83.5531C326.342 83.3017 331.326 77.9148 331.076 71.5436C330.824 65.1707 325.433 60.1908 319.057 60.4423Z" fill="#FFA412"/>
<path d="M321.344 75.4977C321.365 75.2313 321.345 74.9948 321.287 74.7846C321.228 74.5762 321.12 74.3826 320.963 74.2039C320.806 74.0252 320.597 73.8565 320.339 73.696C320.08 73.5355 319.761 73.3734 319.382 73.2096C318.731 72.9217 318.141 72.6289 317.617 72.3295C317.09 72.03 316.646 71.6958 316.284 71.3302C315.921 70.9629 315.65 70.546 315.471 70.0794C315.292 69.6129 315.226 69.0686 315.275 68.4465C315.318 67.9071 315.453 67.4241 315.679 66.9956C315.906 66.5671 316.209 66.2014 316.59 65.9003C316.971 65.5992 317.418 65.3643 317.93 65.1972C318.441 65.0301 319.006 64.9424 319.625 64.9341L319.786 62.8992L321.425 63.0282L321.262 65.0913C321.844 65.2137 322.364 65.4106 322.824 65.6836C323.284 65.9566 323.665 66.2924 323.971 66.6928C324.276 67.0932 324.499 67.5564 324.64 68.0809C324.781 68.6053 324.826 69.1844 324.776 69.818L321.816 69.5847C321.875 68.8237 321.751 68.2413 321.443 67.8377C321.135 67.434 320.698 67.209 320.13 67.1643C319.822 67.1395 319.554 67.1627 319.325 67.2305C319.097 67.2983 318.905 67.4009 318.749 67.5382C318.593 67.6755 318.474 67.8443 318.39 68.0412C318.305 68.238 318.254 68.4548 318.236 68.6897C318.218 68.9246 318.234 69.1397 318.287 69.3349C318.34 69.5301 318.444 69.7154 318.598 69.8908C318.752 70.0662 318.963 70.2349 319.228 70.4004C319.493 70.5642 319.824 70.7395 320.223 70.9232C320.865 71.2226 321.448 71.5237 321.971 71.8265C322.493 72.1293 322.936 72.4651 323.299 72.8357C323.662 73.2063 323.933 73.6249 324.112 74.0914C324.291 74.5596 324.357 75.099 324.309 75.7144C324.264 76.272 324.129 76.765 323.898 77.1935C323.668 77.622 323.364 77.9843 322.983 78.2788C322.602 78.5749 322.153 78.8 321.635 78.9571C321.117 79.1143 320.549 79.197 319.93 79.2053L319.781 81.098L318.151 80.9689L318.3 79.0862C317.737 78.9836 317.199 78.8182 316.686 78.5849C316.171 78.3533 315.724 78.0422 315.343 77.6518C314.962 77.2613 314.669 76.7832 314.467 76.219C314.264 75.6549 314.193 74.9914 314.254 74.2304L317.214 74.4637C317.179 74.9137 317.213 75.2942 317.315 75.6052C317.418 75.9163 317.567 76.1711 317.766 76.3679C317.963 76.5648 318.193 76.7104 318.458 76.8047C318.721 76.899 318.994 76.9569 319.274 76.9784C319.595 77.0032 319.88 76.985 320.128 76.9222C320.377 76.8593 320.59 76.7617 320.764 76.6277C320.94 76.4953 321.075 76.3315 321.173 76.138C321.267 75.9461 321.325 75.7326 321.344 75.4977Z" fill="#FFA412"/>
<path d="M286.946 96.3122C286.855 91.1702 290.953 86.9299 296.097 86.8389C301.241 86.7479 305.487 90.8426 305.578 95.983C305.669 101.123 301.571 105.365 296.427 105.456C291.282 105.547 287.037 101.453 286.946 96.3122Z" fill="#FFB93E"/>
<path d="M296.413 104.738C294.147 104.778 291.999 103.934 290.368 102.361C288.737 100.787 287.817 98.6731 287.775 96.4082C287.736 94.1432 288.58 91.9974 290.155 90.3678C291.729 88.7382 293.845 87.8183 296.112 87.777C298.379 87.7373 300.526 88.581 302.157 90.1544C303.788 91.7278 304.708 93.8421 304.75 96.1071C304.79 98.372 303.945 100.518 302.369 102.147C300.796 103.779 298.682 104.699 296.413 104.738ZM296.122 88.2816C291.721 88.3593 288.204 92.0007 288.282 96.3982C288.36 100.796 292.004 104.31 296.405 104.232C300.806 104.154 304.323 100.513 304.245 96.1153C304.167 91.7178 300.524 88.2038 296.122 88.2816Z" fill="#FFA412"/>
<path d="M297.476 98.6979C297.494 98.5142 297.485 98.3504 297.448 98.2065C297.41 98.0609 297.339 97.9269 297.233 97.8012C297.127 97.6754 296.986 97.5563 296.809 97.4405C296.633 97.3263 296.415 97.2089 296.157 97.0897C295.711 96.8813 295.311 96.6712 294.953 96.4561C294.594 96.241 294.292 96.0044 294.049 95.7463C293.804 95.4883 293.623 95.1971 293.506 94.8712C293.388 94.5452 293.352 94.1697 293.395 93.7428C293.433 93.3722 293.532 93.0397 293.695 92.7485C293.857 92.4557 294.072 92.2092 294.339 92.0073C294.605 91.8055 294.918 91.65 295.272 91.5424C295.627 91.4349 296.019 91.3836 296.446 91.3869L296.587 89.9856L297.715 90.0998L297.571 91.5209C297.97 91.6136 298.326 91.7575 298.639 91.9527C298.951 92.1479 299.21 92.3845 299.415 92.6658C299.619 92.947 299.766 93.2697 299.856 93.632C299.945 93.996 299.966 94.3963 299.923 94.8314L297.885 94.6263C297.938 94.1018 297.86 93.6998 297.655 93.4152C297.448 93.1323 297.15 92.9702 296.759 92.9321C296.547 92.9106 296.362 92.9222 296.205 92.9652C296.046 93.0083 295.912 93.0761 295.802 93.1687C295.693 93.2614 295.609 93.3755 295.547 93.5096C295.486 93.6436 295.448 93.7925 295.431 93.9546C295.415 94.1167 295.423 94.264 295.458 94.3996C295.491 94.5353 295.561 94.6643 295.665 94.7868C295.769 94.9092 295.912 95.03 296.092 95.1474C296.273 95.2649 296.499 95.3906 296.771 95.523C297.21 95.7397 297.607 95.9548 297.963 96.1715C298.319 96.3883 298.619 96.6265 298.864 96.8879C299.109 97.1493 299.289 97.4405 299.405 97.7664C299.523 98.0907 299.559 98.4646 299.516 98.8881C299.478 99.2719 299.375 99.6095 299.211 99.9023C299.046 100.195 298.831 100.44 298.564 100.637C298.297 100.835 297.985 100.984 297.625 101.085C297.266 101.186 296.874 101.234 296.446 101.231L296.316 102.533L295.195 102.42L295.325 101.123C294.94 101.046 294.57 100.921 294.219 100.754C293.868 100.587 293.564 100.366 293.307 100.091C293.05 99.8163 292.855 99.4821 292.724 99.09C292.593 98.6979 292.554 98.2396 292.607 97.7168L294.645 97.9219C294.613 98.2313 294.632 98.4944 294.698 98.7111C294.764 98.9262 294.863 99.1049 294.998 99.2438C295.13 99.3828 295.287 99.487 295.468 99.5549C295.648 99.6243 295.835 99.6674 296.027 99.6872C296.248 99.7087 296.445 99.7005 296.619 99.6607C296.791 99.621 296.94 99.5565 297.062 99.4672C297.185 99.3778 297.283 99.267 297.352 99.1363C297.417 99.0056 297.46 98.86 297.476 98.6979Z" fill="#FFA412"/>
<path d="M270.834 83.1C283.362 82.2493 292.828 71.4115 291.977 58.8932C291.125 46.3748 280.279 36.9163 267.751 37.767C255.223 38.6177 245.757 49.4555 246.608 61.9738C247.46 74.4922 258.306 83.9507 270.834 83.1Z" fill="#FFB93E"/>
<path d="M275.889 80.3368C270.637 82.0739 265.021 81.6653 260.077 79.182C255.133 76.7003 251.452 72.4418 249.712 67.1939C247.973 61.9461 248.382 56.3342 250.868 51.3941C253.351 46.4539 257.613 42.7761 262.865 41.0373C268.117 39.3001 273.733 39.7088 278.677 42.1921C283.621 44.6737 287.302 48.9323 289.04 54.1801C290.779 59.428 290.37 65.0399 287.885 69.98C285.403 74.9218 281.141 78.5996 275.889 80.3368ZM263.254 42.2103C253.058 45.5837 247.51 56.6171 250.886 66.8068C254.262 76.9948 265.304 82.5388 275.501 79.1654C285.697 75.792 291.246 64.7586 287.87 54.5706C284.492 44.3809 273.45 38.8369 263.254 42.2103Z" fill="#FFA412"/>
<path d="M273.975 65.4947C273.885 65.0547 273.743 64.6791 273.551 64.3697C273.357 64.0587 273.092 63.7973 272.755 63.5822C272.417 63.3671 272.001 63.1901 271.508 63.0511C271.014 62.9122 270.423 62.798 269.735 62.7087C268.547 62.5465 267.46 62.3463 266.469 62.1065C265.478 61.8666 264.605 61.534 263.847 61.1105C263.088 60.687 262.456 60.1377 261.948 59.466C261.439 58.7943 261.08 57.9439 260.87 56.9165C260.688 56.0248 260.679 55.181 260.845 54.3819C261.011 53.5828 261.332 52.8515 261.809 52.1865C262.284 51.5214 262.896 50.934 263.646 50.4261C264.396 49.9182 265.269 49.5129 266.267 49.2118L265.579 45.845L268.291 45.2908L268.989 48.7039C269.986 48.6311 270.92 48.7088 271.791 48.9338C272.66 49.1605 273.437 49.5261 274.116 50.0324C274.796 50.5386 275.372 51.1822 275.844 51.9648C276.316 52.7473 276.659 53.6639 276.874 54.7128L271.976 55.7137C271.72 54.4547 271.246 53.5712 270.559 53.0617C269.872 52.5521 269.061 52.3933 268.122 52.5852C267.614 52.6894 267.19 52.8499 266.852 53.0666C266.514 53.2834 266.251 53.5381 266.064 53.8343C265.877 54.1288 265.761 54.4563 265.718 54.8154C265.673 55.1744 265.691 55.5466 265.771 55.9354C265.85 56.3225 265.978 56.6634 266.157 56.9545C266.334 57.2457 266.589 57.4972 266.92 57.7073C267.251 57.9174 267.67 58.0945 268.175 58.2367C268.68 58.379 269.297 58.5064 270.028 58.6206C271.206 58.8059 272.289 59.0209 273.276 59.2674C274.263 59.514 275.136 59.8515 275.894 60.2816C276.652 60.7118 277.286 61.2627 277.795 61.9327C278.303 62.6044 278.661 63.4499 278.869 64.4673C279.058 65.3905 279.066 66.2508 278.894 67.0516C278.722 67.8523 278.397 68.5786 277.919 69.2338C277.44 69.8889 276.819 70.463 276.056 70.9577C275.293 71.4524 274.412 71.8511 273.414 72.1522L274.054 75.2824L271.36 75.8333L270.723 72.7197C269.766 72.8173 268.817 72.7974 267.878 72.6618C266.938 72.5261 266.069 72.2316 265.271 71.7766C264.471 71.3233 263.777 70.6864 263.186 69.8674C262.595 69.0485 262.171 68.0095 261.913 66.7521L266.811 65.7512C266.963 66.4957 267.195 67.0962 267.506 67.5512C267.817 68.0062 268.178 68.3486 268.589 68.5753C268.999 68.8036 269.441 68.931 269.912 68.9608C270.382 68.9906 270.849 68.9575 271.312 68.8632C271.844 68.754 272.296 68.5918 272.668 68.3735C273.041 68.1551 273.339 67.8986 273.561 67.6008C273.783 67.3047 273.927 66.9771 273.996 66.6181C274.059 66.2558 274.054 65.8835 273.975 65.4947Z" fill="#FFA412"/>
<path d="M179.56 54.1867C177.517 54.6963 175.565 55.1843 173.74 55.4954C167.831 56.5046 163.266 55.6724 161.298 47.8006C159.331 39.9288 162.967 37.0484 168.657 35.1623C170.414 34.58 172.366 34.0936 174.409 33.584C178.777 32.4937 183.612 32.9752 187.461 34.2375C191.248 35.4817 194.083 37.4819 194.586 39.492C195.159 41.7801 193.599 44.8805 190.824 47.6864C188.003 50.5436 183.928 53.0964 179.56 54.1867Z" fill="#739AF0"/>
<path d="M168.657 35.1641L161.947 30.7832L151.35 33.0399L162.356 40.7661L168.657 35.1641Z" fill="#163560"/>
<path d="M173.724 55.4309L169.861 62.4491L159.448 65.437L165.526 53.4473L173.724 55.4309Z" fill="#163560"/>
<path d="M173.74 55.4954C167.831 56.5046 163.266 55.6724 161.298 47.8006C159.331 39.9288 162.967 37.0484 168.657 35.1624L173.74 55.4954Z" fill="#163560"/>
<path d="M147.502 51.2435C147.502 51.2435 150.451 44.376 155.615 45.4331C160.882 46.5118 160.218 52.1832 156.266 52.7027C152.312 53.2239 149.807 50.6678 147.502 51.2435Z" fill="#F77D48"/>
<path d="M178.913 37.8359C181.642 37.1543 184.407 38.8137 185.089 41.5402C185.771 44.2667 184.11 47.0296 181.382 47.7112C178.653 48.3929 175.888 46.7335 175.206 44.0069C174.524 41.2804 176.184 38.5175 178.913 37.8359Z" fill="#163560"/>
<path d="M180.148 48.2027C177.714 48.2027 175.494 46.5532 174.876 44.0898C174.151 41.1862 175.924 38.2331 178.83 37.5084C181.736 36.7821 184.691 38.5557 185.417 41.4592C185.768 42.8655 185.551 44.3247 184.804 45.5688C184.057 46.8113 182.87 47.6898 181.463 48.0422C181.024 48.1498 180.582 48.2027 180.148 48.2027ZM180.147 38.023C179.766 38.023 179.38 38.0693 178.996 38.1652C177.764 38.473 176.726 39.2406 176.072 40.3293C175.418 41.4162 175.227 42.6934 175.535 43.9243C176.171 46.4656 178.756 48.0158 181.299 47.3821C182.531 47.0744 183.569 46.3067 184.223 45.2181C184.877 44.1295 185.067 42.8539 184.759 41.623C184.22 39.4673 182.276 38.023 180.147 38.023Z" fill="#BDD1F9"/>
<path d="M190.824 47.6882L187.463 34.2393C191.25 35.4834 194.084 37.4836 194.588 39.4937C195.159 41.7818 193.599 44.8806 190.824 47.6882Z" fill="#F77D48"/>
<path d="M343.125 121.539C343.125 121.539 353.415 132.2 353.902 136.214C354.389 140.226 348.973 146.491 348.973 146.491L343.125 121.539Z" fill="#ED7D2B"/>
<path d="M338.475 232.034C338.475 232.034 338.113 237.689 337.017 237.768C336.871 237.778 331.462 237.766 331.462 237.766L324.557 237.712C324.557 237.712 324.605 236.049 326.625 235.702C328.644 235.354 332.026 233.945 333.253 231.283C334.546 228.48 338.475 232.034 338.475 232.034Z" fill="#2E5A99"/>
<path d="M353.854 232.067C353.854 232.067 353.491 237.722 352.395 237.801C352.249 237.811 346.84 237.799 346.84 237.799L339.936 237.745C339.936 237.745 339.984 236.082 342.004 235.736C344.022 235.389 347.405 233.979 348.632 231.317C349.925 228.515 353.854 232.067 353.854 232.067Z" fill="#18417C"/>
<path d="M330.96 171.23C330.96 171.23 332.74 182.775 339.432 203.275C346.125 223.775 347.022 232.648 347.022 232.648L354.25 232.461C354.25 232.461 354.36 210.073 351.278 199.764C348.195 189.455 350.688 162.624 350.688 162.624L330.96 171.23Z" fill="#163560"/>
<path d="M327.462 163.206C327.462 163.206 327.169 180.596 330.132 201.955C333.098 223.313 332.056 232.375 332.056 232.375L339.269 232.629C339.269 232.629 343.625 211.279 342.413 200.588C341.201 189.899 348.395 163.927 348.395 163.927L327.462 163.206Z" fill="#1C468A"/>
<path d="M341.51 122.542L337.662 125.052L332.111 124.006C332.189 123.558 332.559 121.703 332.897 120.022C332.917 119.923 332.939 119.824 332.957 119.728C333.247 118.296 333.495 117.069 333.495 117.069L338.687 114.794L340.623 113.945C340.618 113.975 340.469 115.532 340.449 115.76C340.078 119.794 341.51 122.542 341.51 122.542Z" fill="#FFB27D"/>
<path d="M333.54 121.254C333.647 121.21 340.232 119.284 340.946 119.521C341.659 119.757 342.08 121.14 342.08 121.14L331.313 123.548C331.313 123.548 332.164 121.829 333.54 121.254Z" fill="#ED7D2B"/>
<path d="M351.161 165.405C350.036 170.486 331.473 171.048 326.698 166.424C326.155 165.896 326.134 163.449 326.345 160.15C326.761 153.705 328.071 144.01 328.132 139.055C328.162 136.662 328.496 134.215 328.94 131.995C329.882 127.262 331.313 123.548 331.313 123.548C331.313 123.548 340.384 120.639 342.08 121.14C350.248 123.557 352.289 160.324 351.161 165.405Z" fill="#F99746"/>
<path d="M326.347 160.15C326.763 153.705 328.072 144.01 328.134 139.055C328.164 136.662 328.498 134.215 328.942 131.995L334.397 131.045C334.396 131.045 339.681 152.819 326.347 160.15Z" fill="#ED7D2B"/>
<path d="M329.319 151.172C329.319 151.172 329.688 152.06 328.907 152.654C328.125 153.248 327.617 154.212 327.794 154.919C327.971 155.625 329.682 156.78 330.276 156.597C330.871 156.413 332.081 155.485 331.952 155.112C331.823 154.74 332.771 151.847 331.326 150.73C329.881 149.611 329.319 151.172 329.319 151.172Z" fill="#FFB27D"/>
<path d="M335.48 122.252C335.48 122.252 330.159 123.235 325.908 129.467C321.657 135.698 318.858 140.332 319.635 142.584C320.41 144.835 327.51 152.651 328.736 152.654C329.963 152.657 331.945 151.769 332.061 149.764C332.061 149.764 327.067 142.249 328.058 141.128C328.48 140.648 334.573 135.728 335.437 137.958C336.864 141.647 335.48 122.252 335.48 122.252Z" fill="#F99746"/>
<path d="M340.06 115.828C338.917 117.754 334.669 119.411 332.897 120.02C332.917 119.921 332.939 119.822 332.957 119.726C333.247 118.295 333.495 117.067 333.495 117.067L338.687 114.792C339.835 114.777 340.532 115.035 340.06 115.828Z" fill="#FCA56B"/>
<path d="M331.543 116.746C331.543 116.746 339.893 119.369 341.446 114.147C343.001 108.927 345.125 105.749 339.86 103.855C334.594 101.961 332.96 103.643 332.018 105.259C331.074 106.876 329.41 115.929 331.543 116.746Z" fill="#FFB27D"/>
<path d="M332.348 104.756C332.348 104.756 332.867 110.836 334.126 110.575C335.384 110.314 336.527 110.12 336.338 111.953C336.149 113.785 334.401 115.897 338.277 116.23C342.153 116.562 347.749 106.583 346.688 104.689C343.626 99.224 327.92 98.0874 332.348 104.756Z" fill="#163560"/>
<path d="M291.861 234.259V236.446C291.861 236.62 291.799 236.782 291.689 236.916C291.575 237.057 291.411 237.169 291.219 237.23C291.159 237.252 291.098 237.265 291.035 237.275C290.977 237.283 290.918 237.288 290.858 237.288H249.346C248.844 237.288 248.425 236.976 248.351 236.572C248.347 236.546 248.342 236.517 248.342 236.489C248.342 236.474 248.341 236.461 248.341 236.446V234.259C248.341 234.244 248.342 234.231 248.342 234.216C248.344 234.188 248.347 234.16 248.351 234.133C248.425 233.73 248.844 233.417 249.346 233.417H290.858C290.919 233.417 290.977 233.42 291.035 233.43C291.098 233.438 291.159 233.455 291.219 233.475C291.411 233.538 291.575 233.649 291.689 233.789C291.797 233.923 291.861 234.085 291.861 234.259Z" fill="#FFB93E"/>
<path d="M271.476 237.288H249.237C248.824 237.288 248.477 237.022 248.374 236.665C248.364 236.635 248.356 236.603 248.349 236.572C248.346 236.546 248.341 236.517 248.341 236.489C248.341 236.474 248.339 236.461 248.339 236.446V234.259C248.339 234.244 248.341 234.231 248.341 234.216C248.343 234.188 248.346 234.16 248.349 234.133C248.356 234.102 248.364 234.07 248.374 234.041C248.478 233.683 248.824 233.417 249.237 233.417H268.746C269.057 234.557 269.783 236.132 271.476 237.288Z" fill="#FFA412"/>
<path d="M286.81 233.415H286.338V237.288H286.81V233.415Z" fill="#FFA412"/>
<path d="M285.212 233.415H284.74V237.288H285.212V233.415Z" fill="#FFA412"/>
<path d="M283.298 233.415H282.827V237.288H283.298V233.415Z" fill="#FFA412"/>
<path d="M280.363 233.415H279.891V237.288H280.363V233.415Z" fill="#FFA412"/>
<path d="M277.258 233.415H276.786V237.288H277.258V233.415Z" fill="#FFA412"/>
<path d="M272.5 233.415H272.028V237.288H272.5V233.415Z" fill="#FFA412"/>
<path d="M268.042 233.415H267.571V237.288H268.042V233.415Z" fill="#FFA412"/>
<path d="M264.064 233.415H263.592V237.288H264.064V233.415Z" fill="#FFA412"/>
<path d="M288.33 233.415H287.858V237.288H288.33V233.415Z" fill="#FFA412"/>
<path d="M289.333 233.415H288.862V237.288H289.333V233.415Z" fill="#FFA412"/>
<path d="M290.304 233.415H289.832V237.288H290.304V233.415Z" fill="#FFA412"/>
<path d="M291.034 233.43V237.275C290.976 237.283 290.916 237.288 290.857 237.288H290.562V233.415H290.857C290.916 233.415 290.976 233.42 291.034 233.43Z" fill="#FFA412"/>
<path d="M291.69 233.787V236.916C291.575 237.058 291.411 237.169 291.218 237.232V233.473C291.41 233.534 291.575 233.647 291.69 233.787Z" fill="#FFA412"/>
<path d="M287.423 230.386V232.571C287.423 232.747 287.36 232.909 287.252 233.043C287.224 233.078 287.191 233.112 287.158 233.142C287.054 233.235 286.926 233.311 286.78 233.357C286.722 233.377 286.659 233.39 286.597 233.4C286.54 233.408 286.479 233.415 286.419 233.415H244.905C244.405 233.415 243.986 233.101 243.912 232.697C243.909 232.671 243.904 232.642 243.904 232.616C243.902 232.601 243.902 232.588 243.902 232.571V230.386C243.902 230.371 243.902 230.356 243.904 230.341C243.905 230.313 243.909 230.287 243.912 230.26C243.986 229.856 244.405 229.542 244.905 229.542H286.419C286.446 229.542 286.472 229.544 286.499 229.545C286.509 229.545 286.519 229.547 286.527 229.549C286.529 229.547 286.53 229.547 286.532 229.549C286.544 229.549 286.557 229.55 286.57 229.552C286.578 229.554 286.587 229.555 286.597 229.555C286.659 229.565 286.722 229.578 286.78 229.598C286.815 229.61 286.85 229.623 286.881 229.638H286.883C286.905 229.648 286.928 229.659 286.948 229.669C286.959 229.676 286.972 229.684 286.984 229.691C286.996 229.698 287.007 229.704 287.017 229.711C287.062 229.737 287.102 229.767 287.14 229.8C287.153 229.81 287.163 229.822 287.174 229.833C287.183 229.84 287.188 229.846 287.196 229.853C287.199 229.856 287.204 229.861 287.206 229.865L287.214 229.873C287.227 229.886 287.241 229.899 287.252 229.916C287.358 230.052 287.423 230.212 287.423 230.386Z" fill="#FFB93E"/>
<path d="M267.037 233.416H244.798C244.385 233.416 244.039 233.148 243.937 232.791C243.927 232.761 243.919 232.73 243.912 232.698C243.909 232.672 243.904 232.644 243.904 232.617C243.902 232.603 243.902 232.589 243.902 232.573V230.387C243.902 230.372 243.902 230.357 243.904 230.343C243.905 230.314 243.909 230.288 243.912 230.261C243.917 230.23 243.927 230.199 243.937 230.169C244.039 229.811 244.385 229.543 244.798 229.543H264.307C264.315 229.577 264.324 229.606 264.335 229.639C264.66 230.769 265.392 232.293 267.037 233.416Z" fill="#FFA412"/>
<path d="M282.371 229.544H281.899V233.417H282.371V229.544Z" fill="#FFA412"/>
<path d="M280.775 229.544H280.303V233.417H280.775V229.544Z" fill="#FFA412"/>
<path d="M278.859 229.544H278.387V233.417H278.859V229.544Z" fill="#FFA412"/>
<path d="M275.924 229.544H275.452V233.417H275.924V229.544Z" fill="#FFA412"/>
<path d="M272.819 229.544H272.347V233.417H272.819V229.544Z" fill="#FFA412"/>
<path d="M268.061 229.544H267.589V233.417H268.061V229.544Z" fill="#FFA412"/>
<path d="M263.605 229.544H263.133V233.417H263.605V229.544Z" fill="#FFA412"/>
<path d="M259.626 229.543H259.154V233.416H259.626V229.543Z" fill="#FFA412"/>
<path d="M283.891 229.544H283.419V233.417H283.891V229.544Z" fill="#FFA412"/>
<path d="M284.896 229.544H284.424V233.417H284.896V229.544Z" fill="#FFA412"/>
<path d="M285.866 229.544H285.394V233.417H285.866V229.544Z" fill="#FFA412"/>
<path d="M286.595 229.557V233.402C286.537 233.41 286.477 233.415 286.418 233.415H286.123V229.542H286.418C286.479 229.544 286.537 229.549 286.595 229.557Z" fill="#FFA412"/>
<path d="M287.25 229.916V233.044C287.136 233.187 286.972 233.298 286.779 233.36V229.602C286.972 229.663 287.136 229.774 287.25 229.916Z" fill="#FFA412"/>
<path d="M289.567 226.609V228.796C289.567 228.97 289.504 229.132 289.395 229.266C289.28 229.407 289.117 229.519 288.924 229.58C288.867 229.6 288.804 229.613 288.741 229.625C288.684 229.633 288.625 229.638 288.565 229.638H247.051C246.886 229.638 246.727 229.603 246.588 229.542C246.313 229.421 246.111 229.196 246.058 228.93C246.054 228.912 246.053 228.894 246.049 228.875C246.048 228.864 246.048 228.851 246.048 228.837C246.046 228.823 246.046 228.809 246.046 228.794V226.607C246.046 226.592 246.046 226.579 246.048 226.564C246.049 226.538 246.051 226.508 246.056 226.483C246.131 226.078 246.549 225.765 247.05 225.765H288.564C288.623 225.765 288.683 225.768 288.739 225.778C288.802 225.787 288.865 225.802 288.923 225.821C289.117 225.884 289.28 225.997 289.393 226.137C289.504 226.273 289.567 226.435 289.567 226.609Z" fill="#FFB93E"/>
<path d="M269.183 229.638H246.943C246.794 229.638 246.653 229.603 246.531 229.542C246.284 229.421 246.104 229.196 246.059 228.93C246.056 228.912 246.054 228.894 246.051 228.875C246.049 228.864 246.049 228.851 246.049 228.837C246.047 228.823 246.047 228.809 246.047 228.794V226.607C246.047 226.592 246.047 226.579 246.049 226.564C246.051 226.538 246.052 226.508 246.057 226.483C246.062 226.452 246.071 226.422 246.081 226.392C246.182 226.032 246.529 225.765 246.943 225.765H266.453C266.756 226.874 267.451 228.396 269.047 229.541C269.09 229.575 269.137 229.608 269.183 229.638Z" fill="#FFA412"/>
<path d="M284.517 225.767H284.045V229.64H284.517V225.767Z" fill="#FFA412"/>
<path d="M282.919 225.767H282.447V229.64H282.919V225.767Z" fill="#FFA412"/>
<path d="M281.003 225.767H280.532V229.64H281.003V225.767Z" fill="#FFA412"/>
<path d="M278.068 225.767H277.596V229.64H278.068V225.767Z" fill="#FFA412"/>
<path d="M274.963 225.767H274.491V229.64H274.963V225.767Z" fill="#FFA412"/>
<path d="M270.205 225.767H269.733V229.64H270.205V225.767Z" fill="#FFA412"/>
<path d="M265.749 225.767H265.277V229.64H265.749V225.767Z" fill="#FFA412"/>
<path d="M261.77 225.767H261.299V229.64H261.77V225.767Z" fill="#FFA412"/>
<path d="M286.037 225.767H285.565V229.64H286.037V225.767Z" fill="#FFA412"/>
<path d="M287.04 225.767H286.568V229.64H287.04V225.767Z" fill="#FFA412"/>
<path d="M288.01 225.767H287.539V229.64H288.01V225.767Z" fill="#FFA412"/>
<path d="M288.741 225.78V229.625C288.683 229.633 288.625 229.638 288.564 229.638H288.269V225.765H288.564C288.623 225.767 288.683 225.772 288.741 225.78Z" fill="#FFA412"/>
<path d="M289.395 226.139V229.268C289.28 229.41 289.116 229.521 288.923 229.584V225.825C289.116 225.886 289.28 225.997 289.395 226.139Z" fill="#FFA412"/>
<path d="M290.562 222.738V224.923C290.562 225.098 290.499 225.259 290.39 225.393C290.377 225.411 290.36 225.428 290.345 225.444C290.266 225.529 290.168 225.6 290.059 225.653C290.014 225.674 289.968 225.692 289.92 225.709C289.86 225.729 289.799 225.742 289.736 225.752C289.708 225.755 289.68 225.76 289.65 225.762C289.62 225.765 289.588 225.765 289.559 225.765H248.045C247.543 225.765 247.124 225.451 247.05 225.047C247.046 225.019 247.041 224.993 247.041 224.966V222.691C247.068 222.281 247.445 221.947 247.925 221.899C247.963 221.895 248.005 221.892 248.045 221.892H289.557C289.587 221.892 289.618 221.894 289.648 221.895C289.678 221.897 289.706 221.9 289.734 221.905C289.797 221.914 289.858 221.929 289.918 221.948C290.11 222.011 290.274 222.122 290.388 222.263C290.499 222.4 290.562 222.562 290.562 222.738Z" fill="#FFB93E"/>
<path d="M270.177 225.767H247.937C247.525 225.767 247.177 225.499 247.074 225.141C247.064 225.112 247.056 225.08 247.05 225.049C247.046 225.021 247.041 224.994 247.041 224.968V222.693C247.064 222.284 247.402 221.948 247.831 221.9C247.866 221.897 247.901 221.894 247.937 221.894H267.446C267.446 221.897 267.448 221.897 267.448 221.9C267.761 223.039 268.486 224.612 270.177 225.767Z" fill="#FFA412"/>
<path d="M285.51 221.894H285.038V225.767H285.51V221.894Z" fill="#FFA412"/>
<path d="M283.914 221.894H283.442V225.767H283.914V221.894Z" fill="#FFA412"/>
<path d="M281.999 221.894H281.527V225.767H281.999V221.894Z" fill="#FFA412"/>
<path d="M279.063 221.894H278.591V225.767H279.063V221.894Z" fill="#FFA412"/>
<path d="M275.958 221.894H275.487V225.767H275.958V221.894Z" fill="#FFA412"/>
<path d="M271.2 221.894H270.728V225.767H271.2V221.894Z" fill="#FFA412"/>
<path d="M266.744 221.894H266.272V225.767H266.744V221.894Z" fill="#FFA412"/>
<path d="M262.766 221.894H262.294V225.767H262.766V221.894Z" fill="#FFA412"/>
<path d="M287.03 221.894H286.558V225.767H287.03V221.894Z" fill="#FFA412"/>
<path d="M288.035 221.894H287.563V225.767H288.035V221.894Z" fill="#FFA412"/>
<path d="M289.006 221.894H288.534V225.767H289.006V221.894Z" fill="#FFA412"/>
<path d="M289.734 221.907V225.752C289.676 225.76 289.618 225.765 289.557 225.765H289.262V221.892H289.557C289.618 221.894 289.676 221.899 289.734 221.907Z" fill="#FFA412"/>
<path d="M290.39 222.266V225.395C290.275 225.537 290.112 225.648 289.918 225.711V221.952C290.112 222.013 290.275 222.125 290.39 222.266Z" fill="#FFA412"/>
<path d="M287.509 218.871V221.056C287.509 221.232 287.446 221.392 287.338 221.526C287.224 221.669 287.06 221.781 286.867 221.842C286.809 221.862 286.746 221.875 286.683 221.885C286.663 221.889 286.645 221.892 286.625 221.894H286.617C286.607 221.895 286.595 221.897 286.585 221.897C286.577 221.898 286.568 221.898 286.559 221.9C286.54 221.9 286.524 221.902 286.506 221.902H244.993C244.458 221.902 244.016 221.546 243.99 221.103C243.988 221.088 243.988 221.075 243.988 221.058V218.873C243.988 218.858 243.988 218.843 243.99 218.828C243.99 218.816 243.991 218.805 243.991 218.793C244.031 218.437 244.341 218.141 244.745 218.055C244.753 218.054 244.765 218.05 244.775 218.049C244.844 218.035 244.917 218.027 244.993 218.027H286.506C286.537 218.027 286.565 218.029 286.595 218.03C286.608 218.032 286.621 218.032 286.633 218.034C286.635 218.034 286.635 218.034 286.636 218.034H286.638C286.653 218.035 286.669 218.037 286.684 218.04C286.747 218.049 286.809 218.064 286.868 218.083C287.062 218.146 287.226 218.257 287.34 218.399C287.448 218.535 287.509 218.695 287.509 218.871Z" fill="#FFB93E"/>
<path d="M267.125 221.9H244.887C244.409 221.9 244.016 221.545 243.991 221.101C243.99 221.086 243.99 221.073 243.99 221.057V218.871C243.99 218.856 243.99 218.841 243.991 218.826C243.991 218.815 243.993 218.803 243.993 218.792C244.029 218.426 244.316 218.128 244.69 218.049C244.702 218.045 244.715 218.042 244.728 218.041C244.78 218.032 244.834 218.026 244.887 218.026H264.395C264.397 218.036 264.4 218.044 264.403 218.054C264.718 219.189 265.445 220.746 267.117 221.892C267.119 221.897 267.122 221.899 267.125 221.9Z" fill="#FFA412"/>
<path d="M282.459 218.027H281.987V221.9H282.459V218.027Z" fill="#FFA412"/>
<path d="M280.861 218.027H280.389V221.9H280.861V218.027Z" fill="#FFA412"/>
<path d="M278.947 218.027H278.475V221.9H278.947V218.027Z" fill="#FFA412"/>
<path d="M276.011 218.027H275.54V221.9H276.011V218.027Z" fill="#FFA412"/>
<path d="M272.907 218.027H272.435V221.9H272.907V218.027Z" fill="#FFA412"/>
<path d="M268.147 218.027H267.675V221.9H268.147V218.027Z" fill="#FFA412"/>
<path d="M263.691 218.027H263.219V221.9H263.691V218.027Z" fill="#FFA412"/>
<path d="M259.712 218.027H259.241V221.9H259.712V218.027Z" fill="#FFA412"/>
<path d="M283.979 218.027H283.507V221.9H283.979V218.027Z" fill="#FFA412"/>
<path d="M284.984 218.027H284.512V221.9H284.984V218.027Z" fill="#FFA412"/>
<path d="M285.952 218.027H285.481V221.9H285.952V218.027Z" fill="#FFA412"/>
<path d="M286.683 218.041V221.885C286.625 221.894 286.567 221.899 286.506 221.899H286.211V218.026H286.506C286.567 218.027 286.625 218.032 286.683 218.041Z" fill="#FFA412"/>
<path d="M287.338 218.4V221.528C287.224 221.67 287.06 221.781 286.866 221.844V218.085C287.059 218.146 287.224 218.259 287.338 218.4Z" fill="#FFA412"/>
<path d="M287.423 215.026V217.212C287.423 217.387 287.36 217.547 287.252 217.681C287.224 217.716 287.191 217.749 287.158 217.782C287.054 217.875 286.926 217.951 286.78 217.997C286.734 218.012 286.686 218.026 286.638 218.034H286.636C286.635 218.034 286.635 218.034 286.633 218.034C286.62 218.036 286.608 218.039 286.595 218.04C286.539 218.049 286.477 218.055 286.418 218.055H244.904C244.861 218.055 244.818 218.052 244.775 218.047C244.758 218.045 244.741 218.044 244.725 218.04C244.303 217.976 243.968 217.686 243.909 217.327C243.905 217.303 243.902 217.279 243.9 217.255C243.899 217.24 243.899 217.225 243.899 217.21V215.024C243.899 215.01 243.899 214.995 243.9 214.98C243.902 214.953 243.905 214.925 243.909 214.899C243.983 214.495 244.402 214.181 244.902 214.181H286.416C286.443 214.181 286.469 214.182 286.496 214.184C286.499 214.184 286.504 214.186 286.506 214.186C286.514 214.187 286.52 214.187 286.529 214.187C286.54 214.189 286.554 214.191 286.567 214.192C286.575 214.192 286.583 214.194 286.593 214.196C286.656 214.204 286.719 214.219 286.777 214.239C286.812 214.25 286.847 214.263 286.878 214.277H286.88C287.009 214.335 287.121 214.414 287.213 214.51C287.226 214.525 287.239 214.538 287.251 214.553C287.358 214.689 287.423 214.851 287.423 215.026Z" fill="#FFB93E"/>
<path d="M267.037 218.055H244.798C244.781 218.055 244.763 218.054 244.746 218.054C244.726 218.052 244.708 218.05 244.69 218.049C244.288 218.001 243.966 217.703 243.912 217.329C243.908 217.304 243.905 217.281 243.904 217.256C243.902 217.241 243.902 217.226 243.902 217.211V215.026C243.902 215.011 243.902 214.996 243.904 214.981C243.905 214.955 243.908 214.927 243.912 214.9C243.917 214.869 243.927 214.837 243.937 214.808C244.039 214.45 244.385 214.182 244.798 214.182H264.307C264.315 214.215 264.324 214.245 264.335 214.278C264.658 215.4 265.38 216.905 266.999 218.027C267.011 218.037 267.024 218.045 267.037 218.055Z" fill="#FFA412"/>
<path d="M282.371 214.182H281.899V218.055H282.371V214.182Z" fill="#FFA412"/>
<path d="M280.775 214.182H280.303V218.055H280.775V214.182Z" fill="#FFA412"/>
<path d="M278.859 214.182H278.387V218.055H278.859V214.182Z" fill="#FFA412"/>
<path d="M275.924 214.182H275.452V218.055H275.924V214.182Z" fill="#FFA412"/>
<path d="M272.819 214.182H272.347V218.055H272.819V214.182Z" fill="#FFA412"/>
<path d="M268.061 214.182H267.589V218.055H268.061V214.182Z" fill="#FFA412"/>
<path d="M263.605 214.182H263.133V218.055H263.605V214.182Z" fill="#FFA412"/>
<path d="M259.626 214.182H259.155V218.055H259.626V214.182Z" fill="#FFA412"/>
<path d="M283.891 214.182H283.419V218.055H283.891V214.182Z" fill="#FFA412"/>
<path d="M284.896 214.182H284.424V218.055H284.896V214.182Z" fill="#FFA412"/>
<path d="M285.866 214.182H285.395V218.055H285.866V214.182Z" fill="#FFA412"/>
<path d="M286.595 214.197V218.042C286.537 218.05 286.477 218.055 286.418 218.055H286.123V214.182H286.418C286.479 214.182 286.537 214.187 286.595 214.197Z" fill="#FFA412"/>
<path d="M287.251 214.555V217.683C287.136 217.825 286.972 217.936 286.779 217.999V214.24C286.972 214.301 287.136 214.414 287.251 214.555Z" fill="#FFA412"/>
<path d="M289.567 211.249V213.435C289.567 213.61 289.504 213.772 289.395 213.906C289.28 214.047 289.117 214.159 288.924 214.221C288.867 214.24 288.804 214.254 288.741 214.264C288.684 214.272 288.625 214.277 288.565 214.277H247.051C246.886 214.277 246.727 214.242 246.588 214.181C246.313 214.06 246.111 213.835 246.058 213.569C246.054 213.55 246.053 213.532 246.049 213.514C246.048 213.501 246.048 213.489 246.048 213.476C246.046 213.461 246.046 213.448 246.046 213.431V211.246C246.046 211.231 246.046 211.216 246.048 211.201C246.049 211.173 246.051 211.147 246.056 211.12C246.131 210.716 246.549 210.402 247.05 210.402H288.564C288.623 210.402 288.683 210.407 288.739 210.417C288.802 210.425 288.865 210.44 288.923 210.46C289.117 210.523 289.28 210.634 289.393 210.776C289.504 210.913 289.567 211.074 289.567 211.249Z" fill="#FFB93E"/>
<path d="M269.183 214.278H246.943C246.794 214.278 246.654 214.244 246.531 214.182C246.284 214.062 246.104 213.837 246.059 213.57C246.056 213.552 246.054 213.534 246.051 213.516C246.049 213.502 246.049 213.491 246.049 213.477C246.048 213.463 246.048 213.449 246.048 213.433V211.247C246.048 211.232 246.048 211.218 246.049 211.203C246.051 211.175 246.053 211.148 246.058 211.122C246.062 211.09 246.071 211.06 246.081 211.032C246.182 210.673 246.529 210.404 246.943 210.404H266.453C266.756 211.514 267.451 213.036 269.047 214.181C269.09 214.215 269.137 214.247 269.183 214.278Z" fill="#FFA412"/>
<path d="M284.517 210.407H284.045V214.28H284.517V210.407Z" fill="#FFA412"/>
<path d="M282.919 210.407H282.447V214.28H282.919V210.407Z" fill="#FFA412"/>
<path d="M281.003 210.407H280.532V214.28H281.003V210.407Z" fill="#FFA412"/>
<path d="M278.068 210.407H277.596V214.28H278.068V210.407Z" fill="#FFA412"/>
<path d="M274.963 210.407H274.491V214.28H274.963V210.407Z" fill="#FFA412"/>
<path d="M270.205 210.407H269.733V214.28H270.205V210.407Z" fill="#FFA412"/>
<path d="M265.749 210.407H265.277V214.28H265.749V210.407Z" fill="#FFA412"/>
<path d="M261.77 210.407H261.299V214.28H261.77V210.407Z" fill="#FFA412"/>
<path d="M286.037 210.407H285.565V214.28H286.037V210.407Z" fill="#FFA412"/>
<path d="M287.04 210.407H286.568V214.28H287.04V210.407Z" fill="#FFA412"/>
<path d="M288.01 210.407H287.539V214.28H288.01V210.407Z" fill="#FFA412"/>
<path d="M288.741 210.42V214.265C288.683 214.273 288.625 214.278 288.564 214.278H288.269V210.405H288.564C288.623 210.405 288.683 210.41 288.741 210.42Z" fill="#FFA412"/>
<path d="M289.395 210.777V213.906C289.28 214.048 289.116 214.159 288.923 214.222V210.463C289.116 210.524 289.28 210.637 289.395 210.777Z" fill="#FFA412"/>
<path d="M292.96 207.376V209.563C292.96 209.737 292.897 209.897 292.789 210.033L292.787 210.035C292.772 210.053 292.758 210.069 292.743 210.086C292.68 210.154 292.605 210.212 292.521 210.26C292.479 210.283 292.435 210.304 292.388 210.322C292.387 210.322 292.387 210.324 292.387 210.324C292.365 210.332 292.342 210.342 292.317 210.351C292.259 210.37 292.196 210.384 292.133 210.394C292.077 210.402 292.016 210.407 291.956 210.407H250.442C249.942 210.407 249.523 210.094 249.449 209.69C249.444 209.662 249.44 209.636 249.44 209.608C249.439 209.593 249.439 209.58 249.439 209.565V207.378C249.439 207.363 249.439 207.349 249.44 207.334C249.465 206.924 249.844 206.59 250.325 206.542C250.364 206.537 250.402 206.535 250.442 206.535H291.956C292.016 206.535 292.075 206.54 292.133 206.549C292.196 206.559 292.259 206.573 292.317 206.593C292.486 206.648 292.63 206.739 292.743 206.856C292.758 206.873 292.774 206.889 292.787 206.908L292.789 206.909C292.897 207.042 292.96 207.202 292.96 207.376Z" fill="#FFB93E"/>
<path d="M272.576 210.405H250.336C249.922 210.405 249.574 210.137 249.473 209.778C249.463 209.748 249.455 209.718 249.45 209.689C249.445 209.661 249.442 209.634 249.442 209.606C249.44 209.591 249.44 209.578 249.44 209.563V207.376C249.44 207.361 249.44 207.348 249.442 207.333C249.463 206.922 249.803 206.588 250.23 206.54C250.265 206.535 250.299 206.534 250.336 206.534H269.845C269.845 206.535 269.847 206.537 269.847 206.54C270.158 207.679 270.884 209.252 272.576 210.405Z" fill="#FFA412"/>
<path d="M287.91 206.534H287.438V210.407H287.91V206.534Z" fill="#FFA412"/>
<path d="M286.312 206.534H285.84V210.407H286.312V206.534Z" fill="#FFA412"/>
<path d="M284.396 206.534H283.924V210.407H284.396V206.534Z" fill="#FFA412"/>
<path d="M281.46 206.534H280.989V210.407H281.46V206.534Z" fill="#FFA412"/>
<path d="M278.356 206.534H277.884V210.407H278.356V206.534Z" fill="#FFA412"/>
<path d="M273.597 206.534H273.125V210.407H273.597V206.534Z" fill="#FFA412"/>
<path d="M269.142 206.534H268.67V210.407H269.142V206.534Z" fill="#FFA412"/>
<path d="M265.163 206.534H264.691V210.407H265.163V206.534Z" fill="#FFA412"/>
<path d="M289.43 206.534H288.958V210.407H289.43V206.534Z" fill="#FFA412"/>
<path d="M290.433 206.534H289.961V210.407H290.433V206.534Z" fill="#FFA412"/>
<path d="M291.403 206.534H290.931V210.407H291.403V206.534Z" fill="#FFA412"/>
<path d="M292.133 206.547V210.392C292.075 210.4 292.016 210.405 291.956 210.405H291.661V206.532H291.956C292.016 206.534 292.075 206.539 292.133 206.547Z" fill="#FFA412"/>
<path d="M292.787 206.906V210.035C292.673 210.177 292.509 210.288 292.315 210.351V206.592C292.509 206.653 292.673 206.764 292.787 206.906Z" fill="#FFA412"/>
<path d="M287.509 203.511V205.697C287.509 205.872 287.446 206.033 287.338 206.167C287.224 206.309 287.06 206.422 286.866 206.483C286.809 206.503 286.746 206.516 286.683 206.526C286.663 206.529 286.645 206.531 286.625 206.534H286.616C286.603 206.537 286.59 206.537 286.577 206.537C286.568 206.537 286.562 206.539 286.554 206.539C286.537 206.539 286.522 206.541 286.504 206.541H244.991C244.631 206.541 244.313 206.38 244.137 206.139C244.051 206.021 243.996 205.886 243.988 205.742C243.986 205.727 243.986 205.712 243.986 205.697V203.511C243.986 203.497 243.986 203.482 243.988 203.467C244.01 203.108 244.304 202.805 244.7 202.704C244.793 202.679 244.89 202.666 244.991 202.666H286.504C286.522 202.666 286.539 202.668 286.557 202.668C286.567 202.668 286.575 202.669 286.583 202.671C286.616 202.673 286.65 202.676 286.681 202.681C286.744 202.689 286.805 202.704 286.865 202.724C286.895 202.732 286.923 202.744 286.951 202.757H286.953C287.064 202.802 287.161 202.865 287.242 202.939C287.244 202.941 287.246 202.942 287.246 202.944C287.249 202.947 287.254 202.951 287.257 202.954C287.285 202.98 287.312 203.008 287.337 203.038C287.448 203.174 287.509 203.336 287.509 203.511Z" fill="#FFB93E"/>
<path d="M267.125 206.541H244.887C244.574 206.541 244.297 206.388 244.137 206.158C244.051 206.036 243.998 205.894 243.991 205.741C243.99 205.727 243.99 205.712 243.99 205.697V203.511C243.99 203.496 243.99 203.481 243.991 203.467C244.013 203.081 244.312 202.762 244.705 202.686C244.763 202.674 244.824 202.667 244.887 202.667H264.395C264.403 202.697 264.411 202.727 264.421 202.757C264.744 203.887 265.474 205.409 267.117 206.534C267.118 206.536 267.122 206.537 267.125 206.541Z" fill="#FFA412"/>
<path d="M282.459 202.667H281.987V206.541H282.459V202.667Z" fill="#FFA412"/>
<path d="M280.861 202.667H280.389V206.541H280.861V202.667Z" fill="#FFA412"/>
<path d="M278.947 202.667H278.475V206.541H278.947V202.667Z" fill="#FFA412"/>
<path d="M276.011 202.667H275.54V206.541H276.011V202.667Z" fill="#FFA412"/>
<path d="M272.907 202.667H272.435V206.541H272.907V202.667Z" fill="#FFA412"/>
<path d="M268.147 202.667H267.675V206.541H268.147V202.667Z" fill="#FFA412"/>
<path d="M263.691 202.667H263.219V206.541H263.691V202.667Z" fill="#FFA412"/>
<path d="M259.712 202.667H259.241V206.541H259.712V202.667Z" fill="#FFA412"/>
<path d="M283.979 202.667H283.507V206.541H283.979V202.667Z" fill="#FFA412"/>
<path d="M284.984 202.667H284.512V206.541H284.984V202.667Z" fill="#FFA412"/>
<path d="M285.952 202.667H285.481V206.541H285.952V202.667Z" fill="#FFA412"/>
<path d="M286.683 202.681V206.526C286.625 206.534 286.567 206.539 286.506 206.539H286.211V202.667H286.506C286.567 202.667 286.625 202.672 286.683 202.681Z" fill="#FFA412"/>
<path d="M287.338 203.04V206.168C287.224 206.311 287.06 206.421 286.866 206.484V202.725C287.059 202.787 287.224 202.897 287.338 203.04Z" fill="#FFA412"/>
<path d="M290.562 199.728V201.915C290.562 202.089 290.499 202.251 290.39 202.385C290.276 202.527 290.112 202.638 289.918 202.701C289.858 202.721 289.797 202.736 289.734 202.744C289.676 202.752 289.618 202.757 289.557 202.757H248.045C247.884 202.757 247.73 202.726 247.596 202.668C247.293 202.54 247.076 202.287 247.045 201.993C247.043 201.981 247.043 201.97 247.041 201.958C247.041 201.943 247.04 201.93 247.04 201.915V199.728C247.04 199.713 247.04 199.7 247.041 199.685C247.066 199.274 247.445 198.939 247.925 198.891C247.963 198.886 248.003 198.884 248.045 198.884H289.557C289.618 198.884 289.676 198.889 289.734 198.897C289.797 198.907 289.858 198.92 289.918 198.94C290.11 199.003 290.276 199.114 290.39 199.256C290.499 199.392 290.562 199.552 290.562 199.728Z" fill="#FFB93E"/>
<path d="M270.177 202.757H247.937C247.793 202.757 247.657 202.726 247.536 202.668C247.266 202.54 247.073 202.287 247.045 201.993C247.043 201.981 247.043 201.97 247.041 201.958C247.041 201.943 247.04 201.93 247.04 201.915V199.728C247.04 199.713 247.04 199.7 247.041 199.685C247.063 199.274 247.402 198.939 247.831 198.891C247.866 198.886 247.901 198.884 247.937 198.884H267.445C267.445 198.886 267.446 198.889 267.446 198.891C267.751 200.001 268.448 201.523 270.048 202.668C270.091 202.698 270.134 202.727 270.177 202.757Z" fill="#FFA412"/>
<path d="M285.51 198.884H285.038V202.757H285.51V198.884Z" fill="#FFA412"/>
<path d="M283.914 198.884H283.442V202.757H283.914V198.884Z" fill="#FFA412"/>
<path d="M281.999 198.884H281.527V202.757H281.999V198.884Z" fill="#FFA412"/>
<path d="M279.063 198.884H278.591V202.757H279.063V198.884Z" fill="#FFA412"/>
<path d="M275.958 198.884H275.487V202.757H275.958V198.884Z" fill="#FFA412"/>
<path d="M271.2 198.884H270.728V202.757H271.2V198.884Z" fill="#FFA412"/>
<path d="M266.744 198.884H266.272V202.757H266.744V198.884Z" fill="#FFA412"/>
<path d="M262.766 198.884H262.294V202.757H262.766V198.884Z" fill="#FFA412"/>
<path d="M287.03 198.884H286.558V202.757H287.03V198.884Z" fill="#FFA412"/>
<path d="M288.035 198.884H287.563V202.757H288.035V198.884Z" fill="#FFA412"/>
<path d="M289.006 198.884H288.534V202.757H289.006V198.884Z" fill="#FFA412"/>
<path d="M289.734 198.897V202.742C289.676 202.75 289.618 202.755 289.557 202.755H289.262V198.882H289.557C289.618 198.884 289.676 198.889 289.734 198.897Z" fill="#FFA412"/>
<path d="M290.39 199.256V202.385C290.275 202.527 290.112 202.638 289.918 202.701V198.942C290.112 199.003 290.275 199.116 290.39 199.256Z" fill="#FFA412"/>
<path d="M291.862 195.861V198.048C291.862 198.222 291.799 198.384 291.69 198.518C291.575 198.66 291.411 198.771 291.218 198.834C291.158 198.854 291.097 198.869 291.034 198.877C291.014 198.88 290.996 198.882 290.976 198.884C290.966 198.884 290.954 198.885 290.943 198.887C290.933 198.889 290.921 198.889 290.91 198.889C290.892 198.89 290.875 198.89 290.857 198.89H249.344C248.81 198.89 248.369 198.534 248.341 198.091C248.341 198.076 248.339 198.063 248.339 198.048V195.861C248.339 195.846 248.339 195.833 248.341 195.818C248.368 195.374 248.81 195.019 249.344 195.019H290.857C290.918 195.019 290.976 195.024 291.034 195.032C291.097 195.042 291.158 195.055 291.218 195.075C291.41 195.138 291.575 195.249 291.69 195.391C291.797 195.525 291.862 195.686 291.862 195.861Z" fill="#FFB93E"/>
<path d="M271.476 198.89H249.237C248.76 198.89 248.366 198.534 248.341 198.091C248.341 198.076 248.339 198.063 248.339 198.048V195.861C248.339 195.846 248.339 195.833 248.341 195.818C248.366 195.374 248.76 195.019 249.237 195.019H268.746C269.057 196.157 269.781 197.73 271.468 198.885C271.47 198.885 271.473 198.889 271.476 198.89Z" fill="#FFA412"/>
<path d="M286.81 195.017H286.338V198.89H286.81V195.017Z" fill="#FFA412"/>
<path d="M285.212 195.017H284.74V198.89H285.212V195.017Z" fill="#FFA412"/>
<path d="M283.298 195.017H282.827V198.89H283.298V195.017Z" fill="#FFA412"/>
<path d="M280.363 195.017H279.891V198.89H280.363V195.017Z" fill="#FFA412"/>
<path d="M277.258 195.017H276.786V198.89H277.258V195.017Z" fill="#FFA412"/>
<path d="M272.5 195.017H272.028V198.89H272.5V195.017Z" fill="#FFA412"/>
<path d="M268.042 195.017H267.571V198.89H268.042V195.017Z" fill="#FFA412"/>
<path d="M264.064 195.017H263.592V198.89H264.064V195.017Z" fill="#FFA412"/>
<path d="M288.33 195.017H287.858V198.89H288.33V195.017Z" fill="#FFA412"/>
<path d="M289.335 195.017H288.863V198.89H289.335V195.017Z" fill="#FFA412"/>
<path d="M290.304 195.017H289.832V198.89H290.304V195.017Z" fill="#FFA412"/>
<path d="M291.034 195.031V198.875C290.976 198.884 290.918 198.889 290.857 198.889H290.562V195.016H290.857C290.918 195.017 290.976 195.022 291.034 195.031Z" fill="#FFA412"/>
<path d="M291.69 195.39V198.518C291.575 198.661 291.411 198.771 291.218 198.834V195.075C291.41 195.137 291.575 195.249 291.69 195.39Z" fill="#FFA412"/>
<path d="M278.702 172.951C278.702 172.951 276.521 176.018 274.523 176.061C272.524 176.104 269.483 174.64 269.483 174.64C269.483 174.64 267.648 170.553 268.892 168.953C268.892 168.953 270.14 168.406 271.445 169.372C271.668 169.539 271.897 169.749 272.12 170.019C272.437 170.399 272.793 170.616 273.17 170.73C274.597 171.164 276.29 170.145 276.924 171.129C277.293 171.701 277.695 172.132 278.026 172.433C278.417 172.78 278.702 172.951 278.702 172.951Z" fill="#FFEDDC"/>
<path d="M250.276 195.075C250.276 195.075 257.984 176.416 271.856 176.061C271.856 176.061 284.661 177.482 285.371 195.075H250.276Z" fill="#FFEDDC"/>
<path d="M268.056 176.63C268.056 176.63 273.616 177.866 275.331 177.14C275.331 177.14 275.591 174.817 273.248 175.143C271.645 175.366 270.602 174.597 269.988 174.284C269.119 173.841 267.824 175.657 268.056 176.63Z" fill="#DB6A1D"/>
<path d="M272.894 173.128C272.538 173.394 271.447 169.37 271.447 169.37C271.67 169.537 271.899 169.748 272.122 170.017C272.438 170.398 272.794 170.614 273.172 170.729C273.175 170.846 273.24 172.868 272.894 173.128Z" fill="#E5C1A1"/>
<path d="M278.026 172.431C277.949 172.477 275.377 174.016 275.028 174.016C274.672 174.016 276.924 171.126 276.924 171.126C277.295 171.7 277.695 172.128 278.026 172.431Z" fill="#E5C1A1"/>
<path d="M257.805 189.862C257.663 189.74 263.259 181.628 264.801 181.569C266.342 181.509 269.804 183.345 272.313 183.582C274.819 183.819 277.25 183.109 277.725 184.59C278.199 186.07 279.503 191.32 278.704 192.16C277.902 193.001 260.883 192.489 257.805 189.862Z" fill="#F9DDBF"/>
<path opacity="0.5" d="M263.077 218.027C263.075 218.037 263.075 218.047 263.074 218.055C263.001 219.356 262.792 220.641 262.451 221.894C262.451 221.895 262.449 221.897 262.449 221.9C262.4 222.082 262.348 222.263 262.292 222.443C261.944 223.586 261.487 224.7 260.924 225.767C260.217 227.108 259.347 228.377 258.317 229.542C258.289 229.575 258.26 229.607 258.232 229.638C256.946 231.077 255.419 232.356 253.672 233.415C253.305 233.638 252.927 233.854 252.538 234.057C252.277 234.194 252.013 234.323 251.748 234.449C251.495 234.595 251.229 234.72 250.977 234.876C250.245 235.323 249.333 235.678 248.339 235.961V234.259C248.339 234.244 248.341 234.231 248.341 234.216C248.343 234.188 248.346 234.16 248.349 234.133C248.356 234.102 248.364 234.07 248.374 234.04C248.478 233.683 248.824 233.417 249.237 233.417H244.798C244.385 233.417 244.039 233.149 243.937 232.791C243.927 232.762 243.918 232.73 243.912 232.699C243.909 232.672 243.904 232.644 243.904 232.618C243.902 232.603 243.902 232.59 243.902 232.573V230.387C243.902 230.373 243.902 230.358 243.904 230.343C243.905 230.315 243.909 230.288 243.912 230.262C243.917 230.23 243.927 230.199 243.937 230.169C244.039 229.812 244.385 229.544 244.798 229.544H246.53C246.283 229.423 246.102 229.198 246.058 228.932C246.054 228.913 246.053 228.895 246.049 228.877C246.048 228.865 246.048 228.852 246.048 228.839C246.046 228.824 246.046 228.811 246.046 228.796V226.609C246.046 226.594 246.046 226.581 246.048 226.566C246.049 226.539 246.051 226.509 246.056 226.485C246.061 226.453 246.069 226.423 246.079 226.394C246.18 226.033 246.528 225.767 246.942 225.767H247.937C247.525 225.767 247.177 225.499 247.074 225.141C247.064 225.111 247.056 225.08 247.049 225.049C247.046 225.02 247.041 224.994 247.041 224.968V222.693C247.064 222.284 247.402 221.948 247.831 221.9H244.885C244.407 221.9 244.015 221.545 243.99 221.101C243.988 221.086 243.988 221.073 243.988 221.056V218.871C243.988 218.856 243.988 218.841 243.99 218.826C243.99 218.815 243.991 218.803 243.991 218.792C244.028 218.426 244.314 218.128 244.688 218.049C244.286 218.001 243.965 217.703 243.91 217.329C243.907 217.304 243.904 217.281 243.902 217.256C243.9 217.241 243.9 217.226 243.9 217.212V215.026C243.9 215.011 243.9 214.996 243.902 214.981C243.904 214.955 243.907 214.927 243.91 214.9C243.915 214.869 243.925 214.837 243.935 214.808C244.038 214.45 244.384 214.182 244.796 214.182H246.528C246.281 214.061 246.101 213.837 246.056 213.57C246.053 213.552 246.051 213.534 246.048 213.516C246.046 213.502 246.046 213.491 246.046 213.477C246.044 213.463 246.044 213.449 246.044 213.433V211.247C246.044 211.232 246.044 211.218 246.046 211.203C246.048 211.175 246.049 211.148 246.054 211.122C246.059 211.09 246.068 211.06 246.078 211.032C246.179 210.673 246.526 210.404 246.94 210.404H250.333C249.919 210.404 249.571 210.136 249.47 209.777C249.46 209.747 249.452 209.717 249.447 209.687C249.442 209.659 249.439 209.633 249.439 209.604C249.437 209.59 249.437 209.576 249.437 209.561V207.374C249.437 207.359 249.437 207.346 249.439 207.331C249.46 206.921 249.8 206.587 250.227 206.539H244.884C244.571 206.539 244.294 206.387 244.134 206.157L244.137 206.137L244.7 202.704L244.702 202.684L245.503 197.785C246.434 197.909 247.352 198.095 248.253 198.338C248.306 198.353 248.357 198.366 248.412 198.381C248.415 198.382 248.419 198.384 248.422 198.384C248.947 198.53 249.467 198.697 249.977 198.884C249.982 198.885 249.985 198.887 249.992 198.889C252.344 199.746 254.535 201.016 256.437 202.666C256.471 202.694 256.505 202.724 256.537 202.755C257.525 203.622 258.433 204.593 259.239 205.664C259.401 205.877 259.558 206.092 259.709 206.312C259.76 206.385 259.81 206.458 259.858 206.531C259.861 206.532 259.861 206.534 259.861 206.537C260.107 206.899 260.338 207.268 260.559 207.651C261.078 208.549 261.516 209.469 261.872 210.404C262.347 211.644 262.681 212.908 262.878 214.181C262.885 214.214 262.888 214.243 262.893 214.277C263.087 215.529 263.143 216.785 263.077 218.027Z" fill="#E2810E"/>
<path d="M220.195 225.879C214.751 216.01 218.344 203.601 228.221 198.161C238.097 192.721 250.517 196.311 255.961 206.18C261.405 216.048 257.812 228.458 247.937 233.898C238.059 239.336 225.639 235.746 220.195 225.879Z" fill="#E2810E"/>
<path d="M247.142 234.312C246.891 234.466 246.636 234.613 246.376 234.757C246.288 234.805 246.2 234.853 246.111 234.899C245.909 235.007 245.708 235.109 245.505 235.21C235.781 239.982 223.921 236.32 218.634 226.738C213.592 217.599 216.303 206.279 224.575 200.335C225.235 199.86 225.929 199.42 226.658 199.019C226.919 198.876 227.184 198.737 227.449 198.606C227.706 198.477 227.967 198.356 228.227 198.24C229.027 197.885 229.838 197.583 230.659 197.339C231.878 196.971 233.117 196.725 234.357 196.594C238.203 196.187 242.072 196.889 245.505 198.566C249.146 200.345 252.293 203.222 254.399 207.039C259.699 216.648 256.434 228.664 247.142 234.312Z" fill="#FFB93E"/>
<path d="M236.66 235.389C234.953 235.389 233.236 235.147 231.55 234.661C226.856 233.304 222.97 230.202 220.612 225.926C218.253 221.649 217.702 216.71 219.059 212.02C220.417 207.33 223.522 203.447 227.802 201.091C236.637 196.223 247.786 199.448 252.657 208.274C257.527 217.102 254.302 228.243 245.467 233.111C242.723 234.62 239.708 235.389 236.66 235.389ZM236.603 199.314C233.699 199.314 230.757 200.024 228.038 201.521C223.874 203.814 220.853 207.591 219.531 212.156C218.21 216.72 218.746 221.525 221.041 225.686C223.336 229.847 227.116 232.866 231.684 234.186C236.252 235.506 241.061 234.97 245.225 232.676C253.821 227.941 256.961 217.099 252.22 208.509C248.983 202.638 242.885 199.314 236.603 199.314Z" fill="#FFA412"/>
<path d="M245.632 218.874C245.592 218.773 245.549 218.676 245.506 218.581C245.175 217.853 244.763 217.264 244.268 216.813C243.708 216.303 243.059 215.921 242.317 215.666C241.577 215.411 240.751 215.256 239.84 215.201C238.93 215.145 237.936 215.132 236.865 215.163C236.203 215.183 235.637 215.171 235.166 215.128C234.696 215.085 234.297 214.998 233.971 214.867C233.643 214.736 233.376 214.556 233.173 214.326C232.968 214.098 232.8 213.82 232.666 213.491C232.532 213.161 232.456 212.834 232.436 212.509C232.416 212.187 232.464 211.879 232.582 211.586C232.698 211.295 232.888 211.027 233.151 210.781C233.413 210.534 233.761 210.322 234.193 210.147C234.989 209.823 235.733 209.831 236.423 210.168C237.113 210.506 237.675 211.209 238.109 212.278L242.269 210.59C241.907 209.7 241.453 208.947 240.908 208.334C240.364 207.72 239.749 207.247 239.064 206.911C238.38 206.577 237.635 206.38 236.83 206.324C236.026 206.267 235.188 206.352 234.32 206.58L233.141 203.681L230.838 204.616L231.999 207.475C231.168 207.905 230.464 208.406 229.885 208.979C229.307 209.551 228.863 210.17 228.552 210.835C228.24 211.502 228.078 212.2 228.062 212.933C228.047 213.666 228.192 214.41 228.5 215.166C228.855 216.04 229.312 216.732 229.871 217.241C230.431 217.751 231.08 218.131 231.818 218.381C232.557 218.631 233.383 218.781 234.297 218.829C235.211 218.879 236.206 218.877 237.279 218.826C237.902 218.791 238.443 218.795 238.902 218.838C239.36 218.879 239.756 218.968 240.09 219.102C240.425 219.236 240.701 219.425 240.923 219.667C241.145 219.908 241.332 220.217 241.483 220.591C241.617 220.922 241.683 221.25 241.682 221.577C241.682 221.905 241.607 222.218 241.46 222.515C241.312 222.813 241.092 223.09 240.799 223.344C240.506 223.597 240.133 223.816 239.681 224C239.287 224.158 238.882 224.264 238.461 224.317C238.041 224.368 237.63 224.327 237.229 224.193C236.829 224.061 236.454 223.818 236.105 223.467C235.756 223.116 235.451 222.625 235.196 221.993L231.037 223.68C231.471 224.749 232.017 225.596 232.673 226.221C233.33 226.847 234.049 227.295 234.829 227.565C235.608 227.835 236.425 227.952 237.277 227.917C238.13 227.882 238.971 227.745 239.799 227.5L240.874 230.146L243.162 229.218L242.082 226.561C242.913 226.13 243.625 225.632 244.218 225.072C244.768 224.552 245.197 223.991 245.506 223.391C245.531 223.343 245.556 223.293 245.579 223.243C245.892 222.588 246.061 221.892 246.081 221.157C246.099 220.418 245.95 219.658 245.632 218.874Z" fill="#FFA412"/>
<g opacity="0.7">
<path d="M382.38 214.755C382.38 214.755 386.304 210.18 382.622 207.275C382.622 207.275 379.933 205.649 377.739 205.779C377.739 205.779 380.847 210.986 379.842 211.504C378.837 212.022 376.799 205.452 376.799 205.452C376.799 205.452 370.679 204.86 368.711 205.804C368.711 205.804 373.943 210.083 372.84 210.337C371.739 210.592 366.086 206.393 366.086 206.393C366.086 206.393 360.391 207.361 360.694 210.834C360.997 214.306 362.96 215.378 363.823 215.286C364.686 215.193 369.732 213.269 369.841 213.976C369.951 214.682 366.914 216.99 364.787 217.097C364.787 217.097 368.802 221.523 371.472 220.246C374.141 218.969 374.37 216.944 376.032 216.184C377.696 215.425 379.117 215.426 378.43 216.201C377.743 216.975 374.732 217.728 373.78 219.409C372.828 221.09 371.976 222.225 374.737 221.809C377.499 221.394 381.988 219.376 382.185 217.063C382.38 214.755 382.38 214.755 382.38 214.755Z" fill="#77A4E5"/>
<path d="M363.492 210.93C363.492 210.93 378.963 210.334 382.38 214.755C382.38 214.755 383.135 217.016 385.462 219.074L385.824 220.062C385.824 220.062 383.144 217.238 382.183 217.066C382.183 217.066 383.683 211.59 363.492 210.93Z" fill="#77A4E5"/>
<path d="M385.462 219.075C385.462 219.075 388.783 221.528 389.013 225.912L388.411 225.967C388.411 225.967 387.349 221.434 385.434 219.66C383.516 217.888 385.462 219.075 385.462 219.075Z" fill="#77A4E5"/>
<path d="M394.48 211.012C394.48 211.012 388.978 207.934 391.546 203.754C391.546 203.754 393.601 201.188 395.802 200.528C395.802 200.528 394.628 206.759 395.802 206.906C396.976 207.053 396.608 199.868 396.608 199.868C396.608 199.868 402.403 197.082 404.678 197.302C404.678 197.302 401.083 203.387 402.257 203.24C403.431 203.093 407.466 196.935 407.466 196.935C407.466 196.935 413.409 195.835 414.362 199.354C415.316 202.873 413.776 204.631 412.895 204.851C412.015 205.071 406.365 204.999 406.513 205.731C406.66 206.464 410.475 207.637 412.602 206.977C412.602 206.977 410.254 212.768 407.173 212.475C404.092 212.182 403.138 210.276 401.231 210.129C399.323 209.982 397.929 210.496 398.883 211.009C399.837 211.522 403.065 211.178 404.605 212.487C406.147 213.795 407.393 214.601 404.532 215.188C401.671 215.774 396.535 215.408 395.509 213.21C394.48 211.012 394.48 211.012 394.48 211.012Z" fill="#77A4E5"/>
<path d="M411.647 200.456C411.647 200.456 396.24 205.44 394.479 211.013C394.479 211.013 394.552 213.506 393.012 216.365V217.465C393.012 217.465 394.626 213.726 395.507 213.213C395.507 213.211 392.06 208.374 411.647 200.456Z" fill="#77A4E5"/>
<path d="M393.013 216.363C393.013 216.363 390.637 219.968 391.992 224.357L392.603 224.193C392.603 224.193 392.01 219.359 393.252 216.929C394.495 214.497 393.013 216.363 393.013 216.363Z" fill="#77A4E5"/>
<path d="M386.169 204.185C386.169 204.185 394.396 199.58 390.556 193.331C390.556 193.331 387.485 189.495 384.193 188.509C384.193 188.509 385.948 197.827 384.193 198.047C382.438 198.265 382.986 187.523 382.986 187.523C382.986 187.523 374.32 183.357 370.919 183.686C370.919 183.686 376.295 192.784 374.54 192.565C372.785 192.347 366.752 183.139 366.752 183.139C366.752 183.139 357.866 181.494 356.44 186.757C355.014 192.018 357.318 194.65 358.634 194.978C359.95 195.307 368.398 195.198 368.179 196.293C367.959 197.39 362.255 199.144 359.073 198.156C359.073 198.156 362.583 206.815 367.191 206.377C371.798 205.938 373.224 203.088 376.077 202.869C378.93 202.649 381.014 203.417 379.587 204.185C378.161 204.952 373.333 204.436 371.03 206.393C368.727 208.35 366.861 209.557 371.14 210.433C375.418 211.31 383.097 210.763 384.634 207.474C386.169 204.185 386.169 204.185 386.169 204.185Z" fill="#9FC1F4"/>
<path d="M360.498 188.4C360.498 188.4 383.536 195.855 386.169 204.185C386.169 204.185 386.059 207.912 388.362 212.187V213.832C388.362 213.832 385.948 208.241 384.632 207.474C384.634 207.474 389.79 200.239 360.498 188.4Z" fill="#9FC1F4"/>
<path d="M388.364 212.187C388.364 212.187 391.917 217.579 389.891 224.14L388.977 223.896C388.977 223.896 389.864 216.667 388.005 213.033C386.147 209.396 388.364 212.187 388.364 212.187Z" fill="#9FC1F4"/>
<path d="M385.97 236.903C378.123 236.903 371.762 230.546 371.762 222.706H400.178C400.178 230.546 393.818 236.903 385.97 236.903Z" fill="#9FC1F4"/>
<path d="M371.441 223.14H400.646V222.705H371.441V223.14Z" fill="#77A4E5"/>
<path d="M392.038 236.903H378.736C378.736 236.274 379.246 235.764 379.875 235.764H390.899C391.528 235.763 392.038 236.274 392.038 236.903Z" fill="#77A4E5"/>
</g>
<path d="M299.372 141.586C281.091 156.459 259.189 167.891 234.274 175.566C214.036 181.798 191.614 185.617 167.629 186.919C161.089 187.275 154.718 187.428 148.585 187.428C136.185 187.428 124.751 186.798 114.787 185.921L118.818 166.861C132.558 167.979 148.967 168.566 166.695 167.605C189.268 166.384 210.291 162.812 229.174 156.997C251.897 149.995 271.773 139.653 288.242 126.251L299.372 141.586Z" fill="#F77D48"/>
<path d="M163.068 103.578C160.526 102.262 158.488 103.089 158.488 103.089C150.709 102.175 148.441 111.24 148.547 114.359C148.651 117.477 149.009 120.828 145.535 124.879C135.501 136.583 156.516 137.099 156.516 137.099C156.693 127.748 167.912 131.16 167.421 132.108C181.799 135.557 168.849 106.575 163.068 103.578Z" fill="#163560"/>
<path d="M133.062 142.562C133.062 142.562 131.695 140.481 130.592 140.441C129.489 140.4 127.448 139.829 127.612 140.237C127.776 140.646 129.041 140.686 129.163 140.931C129.286 141.176 127.286 141.543 126.713 141.584C126.142 141.626 124.794 141.584 124.835 141.87C124.877 142.157 127.264 143.34 128.948 143.176C130.634 143.012 132.715 143.665 132.715 143.665L133.062 142.562Z" fill="#FFB27D"/>
<path d="M152.845 143.235C152.845 143.235 152.102 144.706 150.752 146.397C149.126 148.432 146.621 150.781 143.474 151.244C141.97 151.466 140.5 151.144 139.149 150.543C139.146 150.541 139.144 150.541 139.144 150.541C135.323 148.846 132.448 144.948 132.448 144.948C131.774 143.111 132.877 141.867 132.877 141.867C132.877 141.867 140.594 143.601 141.33 143.234C142.065 142.866 146.351 130.526 147.373 128.974C148.395 127.424 151.873 126.618 151.873 126.618L152.845 143.235Z" fill="#F99746"/>
<path d="M150.754 146.397C149.128 148.432 146.623 150.781 143.475 151.244C141.972 151.466 140.502 151.143 139.151 150.543C139.3 150.563 143.118 151.034 144.638 148.314C146.189 145.54 147.868 141.134 150.173 142.602C151.168 143.237 151.125 144.812 150.754 146.397Z" fill="#ED7D2B"/>
<path d="M181.636 226.472C181.636 226.472 183.991 228.619 183.532 230.144C183.074 231.67 180.948 232.687 180.661 234.552C180.373 236.416 179.226 237.434 178.191 237.434C177.158 237.434 173.262 237.434 173.262 237.434C173.262 237.434 172.5 236.122 174.338 235.727C176.176 235.331 176.87 233.141 176.754 231.106C176.639 229.071 176.926 226.359 176.926 226.359L180.832 225.456L181.636 226.472Z" fill="#36599E"/>
<path d="M161.707 227.383C161.707 227.383 162.554 236.479 161.519 236.989L148.289 236.962C148.289 236.962 148.289 235.437 150.413 235.098C152.537 234.759 156.271 233.516 156.903 230.747C157.536 227.975 161.707 227.383 161.707 227.383Z" fill="#2B478B"/>
<path d="M171.134 162.122C168.412 156.021 166.747 154.27 167.065 152.376C167.301 150.966 166.344 126.099 166.344 126.099C166.021 125.999 165.374 125.908 165.02 125.83C163.902 125.582 162.978 124.8 162.594 123.723C162.13 122.426 161.763 120.511 161.771 118.113L161.422 118.18L155.557 119.34C155.557 119.34 155.691 121.185 155.695 122.922C155.695 122.937 155.695 122.95 155.695 122.965C155.701 124.474 154.711 125.806 153.261 126.224C152.521 126.438 151.875 126.62 151.875 126.62C151.875 126.62 149.721 132.763 149.31 139.073C148.9 145.383 153.226 148.124 149.277 160.734C145.247 173.614 172.638 165.492 171.134 162.122Z" fill="#FFB27D"/>
<path d="M155.557 119.34C155.557 119.34 155.691 121.185 155.695 122.922C158.976 122.829 160.71 119.838 161.422 118.18L155.557 119.34Z" fill="#E8945B"/>
<path d="M154.461 120.985C154.461 120.985 162.225 121.112 162.23 116.279C162.235 111.447 163.241 108.209 158.284 107.923C153.327 107.637 152.362 109.48 151.968 111.093C151.574 112.706 152.441 120.828 154.461 120.985Z" fill="#FFB27D"/>
<path d="M154.748 107.807C154.748 107.807 156.874 113.477 160.135 114.314C163.397 115.153 164.813 114.279 164.813 114.279C164.813 114.279 162.311 112.292 161.791 108.826C161.791 108.825 156.352 105.109 154.748 107.807Z" fill="#163560"/>
<path d="M155.274 108.267C155.274 108.267 153.698 108.856 153.049 110.004C152.415 111.127 151.873 112.615 151.999 114.44C151.999 114.44 150.398 110.586 152.198 108.406C154.107 106.096 155.274 108.267 155.274 108.267Z" fill="#163560"/>
<path d="M156.15 117.987C156.15 117.987 155.613 118.692 154.542 118.64C153.68 118.599 153.347 117.851 153.347 117.851C153.347 117.851 154.931 117.471 156.15 117.987Z" fill="#EBF3FA"/>
<path d="M171.883 137.099C171.883 137.099 172.08 139.876 171.883 143.209C171.752 145.417 169.515 148.377 169.197 149.108C168.401 150.945 167.503 151.242 167.503 151.242L160.556 152.943L158.114 153.54L150.411 151.242C150.411 151.242 146.903 141.458 148.312 135.95C149.721 130.443 151.873 126.618 151.873 126.618C151.873 126.618 158.158 132.767 166.343 126.097L171.883 137.099Z" fill="#F99746"/>
<path d="M150.903 152.73C150.903 152.73 147.088 164.594 146.843 168.632C146.598 172.671 154.135 226.011 154.438 227.873C154.724 229.626 156.903 230.745 156.903 230.745C156.903 230.745 157.907 231.335 159.337 230.932C161.322 230.371 161.95 229.701 161.95 229.701C161.95 229.701 164.919 191.659 163.083 178.069C161.245 164.48 161.223 152.728 161.223 152.728H150.903V152.73Z" fill="#233862"/>
<path d="M167.063 152.376C167.063 152.376 172.881 160.177 173.424 165.449C173.967 170.722 174.275 189.245 175.431 194.385C176.587 199.526 180.832 209.419 180.832 225.452C180.832 225.452 180.39 226.371 179.027 226.86C178.592 227.017 178.007 227.168 177.441 227.299C176.317 227.557 175.164 227.008 174.651 225.975C171.78 220.2 162.637 201.574 162.169 197.708C161.837 194.971 158.95 176.862 152.651 166.237C151.14 163.686 153.579 153.541 153.579 153.541L167.063 152.376Z" fill="#2B478B"/>
<path d="M155.978 118.117C155.978 118.117 155.844 118.687 154.426 118.599C154.426 118.599 153.236 118.524 153.272 117.899C153.271 117.899 154.425 117.454 155.978 118.117Z" fill="white"/>
<path d="M150.294 150.898C150.294 150.898 151.825 152.109 154.867 152.171C158.501 152.243 167.503 151.246 167.503 151.246C167.503 151.246 167.904 152.363 167.887 153.542C167.887 153.542 156.89 156.313 150.519 153.948C150.52 153.944 149.698 152.401 150.294 150.898Z" fill="#233862"/>
<path d="M153.996 155.299C153.082 155.299 152.339 154.459 152.339 153.425C152.339 152.391 153.082 151.55 153.996 151.55C154.91 151.55 155.653 152.391 155.653 153.425C155.653 154.457 154.91 155.299 153.996 155.299ZM153.996 152.098C153.385 152.098 152.887 152.692 152.887 153.423C152.887 154.154 153.383 154.75 153.996 154.75C154.607 154.75 155.105 154.154 155.105 153.423C155.104 152.692 154.607 152.098 153.996 152.098Z" fill="white"/>
<path d="M165.921 137.64L154.655 147.442L168.083 162.852L179.35 153.05L165.921 137.64Z" fill="#B5453C"/>
<path d="M164.963 153.081C164.963 153.081 160.836 153.562 160.849 154.541C160.862 155.521 161.877 157.533 162.387 157.622C162.897 157.711 165.747 154.902 165.747 154.902L164.963 153.081Z" fill="#FFB27D"/>
<path d="M166.343 126.099C166.343 126.099 171.855 126.484 173.966 131.616C176.078 136.748 180.087 145.363 180.087 146.812C180.087 148.261 177.848 152.73 165.823 155.298C165.823 155.298 164.579 153.991 164.654 152.957C164.654 152.957 172.159 146.514 172.139 145.762C172.101 144.337 170.909 142.458 164.319 135.87C162.529 134.08 166.343 126.099 166.343 126.099Z" fill="#F99746"/>
<path d="M47.1305 237.42H47.0758C46.7546 237.42 46.4963 237.157 46.5046 236.836L47.3705 199.304L49.9237 199.006L47.7464 236.84C47.7282 237.165 47.4583 237.42 47.1305 237.42Z" fill="#95C0F4"/>
<path d="M88.1808 237.42H88.2354C88.5566 237.42 88.8149 237.157 88.8066 236.836L87.9407 199.304L85.3876 199.006L87.5648 236.84C87.5831 237.165 87.8546 237.42 88.1808 237.42Z" fill="#B0D4FF"/>
<path d="M45.4399 196.976V171.256C45.4399 166.731 49.1107 163.062 53.6408 163.062H72.1849C76.7133 163.062 80.3857 166.73 80.3857 171.256V197.959L45.4399 196.976Z" fill="#B0D4FF"/>
<path d="M83.7088 201.036H47.902C46.5427 201.036 45.4399 199.934 45.4399 198.576V196.976H83.7088V201.036Z" fill="#95C0F4"/>
<path d="M87.9987 201.036H60.9093C59.9043 201.036 59.088 200.222 59.088 199.216V198.794C59.088 197.79 59.9026 196.974 60.9093 196.974H87.9987C89.0037 196.974 89.82 197.788 89.82 198.794V199.216C89.82 200.222 89.0037 201.036 87.9987 201.036Z" fill="#B0D4FF"/>
<path d="M86.9473 190.567C84.2899 195.188 80.9486 196.971 80.9486 196.971H67.0471C67.0471 196.971 88.9739 187.043 86.9473 190.567Z" fill="#233862"/>
<path d="M76.2711 226.314C75.9085 226.729 75.8621 227.193 76.0426 227.687C76.0426 227.689 76.0442 227.692 76.0459 227.694C76.377 228.609 77.4731 229.631 78.7447 230.652C78.907 230.783 79.0527 230.902 79.1785 231.013C79.2116 231.041 79.2448 231.071 79.2762 231.1C79.301 231.124 79.3259 231.147 79.3507 231.168C80.5379 232.262 80.0908 232.512 82.2218 234.729C84.6524 237.255 86.3263 237.301 86.8015 237.071C87.2038 236.874 86.3859 235.534 85.4786 234.029C85.4339 233.956 85.3908 233.883 85.3461 233.809C85.2252 233.609 85.106 233.405 84.9852 233.203C83.9222 231.39 84.1954 230.54 84.4471 227.841C84.6524 225.649 87.8612 215.592 87.8612 215.592L83.2036 214.789C83.2036 214.789 81.8012 222.797 80.2547 224.031C79.4285 224.688 78.503 224.696 77.7082 225.184C77.6519 225.219 77.5973 225.254 77.5427 225.288C77.094 225.589 76.6337 225.899 76.2711 226.314Z" fill="#FFB27D"/>
<path d="M76.2711 226.314C75.9085 226.729 75.8621 227.193 76.0426 227.687C76.0426 227.689 76.0442 227.692 76.0459 227.694C76.4515 228.609 77.5195 229.626 78.7497 230.644C78.9103 230.778 79.0527 230.9 79.1785 231.014C79.2116 231.043 79.2448 231.072 79.2762 231.102C79.301 231.125 79.3259 231.148 79.3507 231.17C80.5379 232.264 80.0908 232.513 82.2218 234.73C84.6524 237.257 86.3263 237.303 86.8015 237.073C87.2038 236.876 86.3859 235.536 85.4786 234.03C85.005 233.857 82.8079 232.965 81.1455 230.841C79.6819 228.975 78.7066 226.577 77.7099 225.188C77.6536 225.222 77.599 225.257 77.5443 225.292C77.094 225.59 76.6337 225.899 76.2711 226.314Z" fill="#233862"/>
<path d="M113.828 223.407C114.116 224.843 116.164 224.605 118.454 224.046C120.744 223.487 120.199 224.152 123.458 223.791C126.716 223.431 127.703 222.216 127.802 221.733C127.892 221.303 126.281 221.152 124.554 220.954C124.337 220.929 124.118 220.903 123.9 220.876C121.949 220.631 120.522 219.374 118.75 218.341C117.073 217.364 114.57 213.378 114.57 213.378L110.101 213.732C110.101 213.732 112.445 217.291 113.353 218.839C113.886 219.749 113.858 220.954 113.792 221.882C113.76 222.385 113.727 222.901 113.828 223.407Z" fill="#FFB27D"/>
<path d="M118.456 224.046C120.746 223.487 120.201 224.152 123.459 223.791C126.718 223.431 127.705 222.216 127.804 221.733C127.893 221.303 126.282 221.152 124.555 220.954L124.539 220.987C124.539 220.987 122.585 222.372 119.871 222.436C117.661 222.489 115.318 221.857 113.792 221.882C113.757 222.387 113.724 222.903 113.826 223.409C114.116 224.845 116.166 224.605 118.456 224.046Z" fill="#233862"/>
<path d="M96.7029 194.853L92.5255 206.087L87.0715 220.754C87.0715 220.754 85.5913 220.896 84.174 220.489C82.8693 220.112 81.3708 219.126 81.3708 219.126C81.3708 219.126 82.8858 203.377 85.7105 194.337C86.4341 192.016 87.2454 190.14 88.1411 189.083C92.5205 183.913 96.7029 194.853 96.7029 194.853Z" fill="#233862"/>
<path d="M92.4543 177.014C89.7174 176.132 81.9106 177.263 74.0691 178.799L72.4266 176.092L55.4885 174.77C55.4885 174.77 49.8988 187.155 52.9586 195.047C53.4089 196.207 54.3014 196.951 55.8246 196.974C55.8246 196.976 56.0713 196.974 56.073 196.974C56.073 196.974 66.1531 196.968 69.4281 196.968C77.8508 196.968 87.2553 191.182 88.4706 190.939C90.4625 190.54 91.2589 194.521 93.249 198.698C95.2392 202.876 111.965 217.202 111.965 217.202C111.965 217.202 114.537 217.226 115.598 216.829C116.74 216.401 117.158 215.845 117.158 215.845C117.158 215.845 98.6268 179.004 92.4543 177.014Z" fill="#2B478B"/>
<path d="M71.7609 126.812C69.5903 125.673 66.2904 125.519 65.7539 125.447C59.3363 124.585 55.4735 133.904 55.245 136.728C54.8261 141.933 52.071 142.727 48.1916 145.987C40.4147 152.522 42.6946 160.117 46.9482 162.94C49.4997 164.634 53.9966 162.94 53.9966 162.94C54.0595 162.984 66.2954 156.105 72.3272 152.786C81.3707 151.501 77.291 129.713 71.7609 126.812Z" fill="#B5453C"/>
<path d="M67.2723 149.96C67.2987 149.977 64.3052 150.999 62.3034 150.113C60.4192 149.281 58.9936 146.185 59.0218 146.183C59.8778 146.144 60.8199 145.396 61.5434 140.484L61.9077 140.615L68.0422 142.82C68.0422 142.82 67.5984 144.787 67.3103 146.66C67.0686 148.232 66.9378 149.739 67.2723 149.96Z" fill="#FFB27D"/>
<path d="M68.0422 142.822C68.0422 142.822 67.5984 144.789 67.3104 146.662C63.787 146.028 62.4044 142.52 61.9077 140.616L68.0422 142.822Z" fill="#ED975D"/>
<path d="M68.9544 144.772C68.9544 144.772 60.5615 143.647 61.343 138.434C62.1245 133.223 61.5682 129.566 66.9592 130.066C72.3503 130.564 73.092 132.708 73.2543 134.511C73.4182 136.315 71.1582 144.931 68.9544 144.772Z" fill="#FFB27D"/>
<path d="M72.9498 131.656C72.9498 131.656 67.577 136.281 63.9228 136.655C60.2686 137.028 58.8844 135.856 58.8844 135.856C58.8844 135.856 61.0385 134.069 62.3349 131.186C62.7174 130.335 63.5237 129.751 64.4526 129.672C67.0637 129.445 72.0093 129.343 72.9498 131.656Z" fill="#B5453C"/>
<path d="M69.5919 131.241C69.5919 131.241 71.39 132.978 71.9546 134.265C72.501 135.507 72.6649 138.48 72.2295 139.662C72.2295 139.662 75.0293 134.22 73.4448 131.576C71.7642 128.774 69.5919 131.241 69.5919 131.241Z" fill="#B5453C"/>
<path d="M74.3405 162.314C74.0871 179.29 74.2709 175.743 72.4115 177.353C71.9628 177.74 70.7045 177.972 69.0488 178.081C63.8398 178.427 54.682 177.568 54.3327 176.607C53.1306 173.278 53.98 172.244 52.9766 167.148C52.8723 166.606 52.7432 166.02 52.5908 165.381C51.7547 161.881 50.9417 160.691 53.9071 155.068C56.596 149.974 59.3909 145.841 59.6409 145.99C66.7357 150.199 67.3086 146.661 67.3086 146.661C67.3086 146.661 74.4646 154.034 74.3405 162.314Z" fill="#8C9DF4"/>
<path d="M92.5238 206.087L87.0698 220.754C87.0698 220.754 85.5896 220.896 84.1723 220.489C82.8676 220.112 81.3691 219.126 81.3691 219.126C81.3691 219.126 82.8841 203.377 85.7088 194.337L92.5238 206.087Z" fill="#2B478B"/>
<path d="M67.3103 146.66C67.3103 146.66 74.6104 147.897 75.4681 151.037C76.3257 154.179 81.3707 172.643 81.3707 172.643C81.3707 172.643 77.6586 173.309 75.9449 171.595C74.2296 169.881 69.9793 155.701 69.9793 155.701L67.3103 146.66Z" fill="#8C9DF4"/>
<path d="M69.0488 178.082C63.8399 178.428 54.6821 177.57 54.3327 176.608C53.1307 173.28 53.9801 172.246 52.9767 167.15L55.4901 160.081C55.4901 160.081 55.0745 167.954 57.3975 170.024C59.7188 172.095 66.9113 174.021 68.0405 175.751C68.5852 176.58 68.9445 177.414 69.0488 178.082Z" fill="#6980E2"/>
<path d="M63.08 174.77C63.08 174.77 68.2193 173.627 69.0489 174.082C69.8784 174.537 71.905 176.198 72.1583 176.776C72.4116 177.353 70.3122 176.337 69.6284 176.153C69.1863 176.034 68.0206 176.44 67.4445 176.632C65.0188 177.439 63.532 177.024 63.532 177.024L63.08 174.77Z" fill="#FFB27D"/>
<path d="M59.6377 145.987C59.6377 145.987 52.7367 146.412 50.3475 149.74C46.9847 154.428 40.3138 174.4 44.1368 177.065C48.4417 180.065 63.7324 177.849 63.7324 177.849C63.7324 177.849 64.2407 175.474 63.5337 174.324C62.825 173.174 51.321 171.318 50.7895 170.787C50.2581 170.255 57.4274 160.44 57.4274 158.848C57.4274 157.257 59.6377 145.987 59.6377 145.987Z" fill="#8C9DF4"/>
<path d="M69.2972 175.513C69.2972 175.513 70.3735 176.901 70.7278 177.066C71.0805 177.232 71.3089 177.191 71.3089 177.191L70.5837 175.885L69.2972 175.513Z" fill="#FFB27D"/>
<path d="M69.0488 174.084L72.1798 175.603C72.1798 175.603 72.0473 175.821 71.6616 175.803C71.2758 175.785 70.3039 175.43 70.3039 175.43L69.0488 174.084Z" fill="#FFB27D"/>
<path d="M69.5952 179.193H96.009L103.955 160.681H77.5808L69.5952 179.193Z" fill="#F77D48"/>
<path d="M96.3187 177.993H61.4375V179.163H96.0091L96.3187 177.993Z" fill="#F77D48"/>
<path d="M89.3414 169.936C89.5401 169.286 89.1394 168.758 88.444 168.758C87.7486 168.758 87.0251 169.286 86.8264 169.936C86.6277 170.586 87.0284 171.114 87.7238 171.114C88.4175 171.116 89.1411 170.588 89.3414 169.936Z" fill="#EBF3FA"/>
<path d="M135.066 237.937H135.139C135.563 237.937 135.904 237.551 135.894 237.085L134.748 182.321L131.372 181.886L134.251 237.088C134.275 237.564 134.632 237.937 135.066 237.937Z" fill="#233862"/>
<path d="M63.8994 237.937H63.8282C63.4044 237.937 63.0633 237.551 63.0732 237.085L64.219 182.321L67.595 181.886L64.7157 237.088C64.6909 237.564 64.3332 237.937 63.8994 237.937Z" fill="#233862"/>
<path d="M136.396 183.112H59.4886C58.8098 183.112 58.2584 182.561 58.2584 181.883V180.422C58.2584 179.744 58.8098 179.193 59.4886 179.193H136.394C137.073 179.193 137.624 179.744 137.624 180.422V181.883C137.624 182.561 137.074 183.112 136.396 183.112Z" fill="#233862"/>
<path d="M417.53 238.685H0.652421C0.321275 238.685 0.0513916 238.415 0.0513916 238.084V237.503C0.0513916 237.173 0.321275 236.903 0.652421 236.903H417.53C417.861 236.903 418.131 237.173 418.131 237.503V238.084C418.131 238.413 417.861 238.685 417.53 238.685Z" fill="#739AF0"/>
</svg>
